<?xml version="1.0" encoding="UTF-8"?>
<svg version="1.1" xmlns="http://www.w3.org/2000/svg" width="529" height="300">
<path d="M0 0 C174.57 0 349.14 0 529 0 C529 99 529 198 529 300 C354.43 300 179.86 300 0 300 C0 201 0 102 0 0 Z " fill="#FEFEFE" transform="translate(0,0)"/>
<path d="M0 0 C4.01084991 2.79794685 7.42717644 5.28152931 9 10 C9.29956358 15.07190927 9.35599378 20.14277457 9.4050293 25.22265625 C9.42658712 26.90060027 9.46066447 28.5784325 9.50756836 30.25585938 C9.94309974 45.99078665 9.94309974 45.99078665 6.34765625 50.453125 C1.44271614 55.0220207 -3.80545146 56.36960445 -10.375 56.40625 C-11.06255371 56.41708618 -11.75010742 56.42792236 -12.45849609 56.43908691 C-15.37395858 56.48458931 -18.2893248 56.49638053 -21.20507812 56.51123047 C-23.34536552 56.52701007 -25.48493199 56.56002149 -27.625 56.59375 C-29.53152344 56.60438477 -29.53152344 56.60438477 -31.4765625 56.61523438 C-36.89842247 57.2073111 -40.84473515 59.24066329 -44.3125 63.4375 C-44.80363281 64.01371094 -45.29476563 64.58992188 -45.80078125 65.18359375 C-47.96867723 68.4672147 -48.14323391 71.90635574 -48.31640625 75.765625 C-48.35830078 76.65507812 -48.40019531 77.54453125 -48.44335938 78.4609375 C-48.48267578 79.38132812 -48.52199219 80.30171875 -48.5625 81.25 C-48.60568359 82.18585938 -48.64886719 83.12171875 -48.69335938 84.0859375 C-48.7991805 86.39048641 -48.90126557 88.69513839 -49 91 C-51.56314499 91.08132187 -54.12368418 91.14064175 -56.6875 91.1875 C-57.40873047 91.21263672 -58.12996094 91.23777344 -58.87304688 91.26367188 C-63.47460073 91.32670686 -66.45765302 91.01638133 -70 88 C-71.765625 85.22265625 -71.765625 85.22265625 -73.25 82.0625 C-73.75015625 81.02222656 -74.2503125 79.98195313 -74.765625 78.91015625 C-77.26284328 73.02272707 -77.21654627 67.63943709 -77.25 61.3125 C-77.270625 60.35666016 -77.29125 59.40082031 -77.3125 58.41601562 C-77.351984 51.17563762 -76.77826998 44.40562127 -72.0625 38.625 C-71.381875 38.08875 -70.70125 37.5525 -70 37 C-69.319375 36.443125 -68.63875 35.88625 -67.9375 35.3125 C-64.6514569 33.0864708 -61.92536252 32.87676231 -58.06958008 32.88647461 C-57.06876907 32.88655014 -56.06795807 32.88662567 -55.03681946 32.88670349 C-53.95861435 32.89186478 -52.88040924 32.89702606 -51.76953125 32.90234375 C-50.66397385 32.9037587 -49.55841644 32.90517365 -48.4193573 32.90663147 C-44.88371083 32.91223486 -41.34812738 32.92478796 -37.8125 32.9375 C-35.41731862 32.94251456 -33.02213625 32.94707754 -30.62695312 32.95117188 C-24.75128053 32.96220539 -18.87564477 32.97894684 -13 33 C-13 31.02 -13 29.04 -13 27 C-22.57 27 -32.14 27 -42 27 C-42.0825 23.803125 -42.165 20.60625 -42.25 17.3125 C-42.28641602 16.31387939 -42.32283203 15.31525879 -42.36035156 14.28637695 C-42.41199381 10.15291518 -42.37030291 7.64342224 -40.2734375 4 C-31.23598734 -3.95047162 -10.90743972 -5.16195707 0 0 Z " fill="#0577BD" transform="translate(437,91)"/>
<path d="M0 0 C2.70942393 -0.10861833 5.414439 -0.18758577 8.125 -0.25 C8.88554687 -0.28351563 9.64609375 -0.31703125 10.4296875 -0.3515625 C15.77882502 -0.44378901 18.78859116 0.39930906 23 4 C30.29108913 13.38010905 29.96838505 27.80680965 28.65234375 38.94140625 C27.46937207 45.61177598 25.3280063 50.58536621 20 55 C14.3465449 57.56149111 8.77286147 57.25558639 2.6953125 57.1953125 C1.61619598 57.1924826 0.53707947 57.18965271 -0.57473755 57.18673706 C-4.00827299 57.1755766 -7.44154391 57.1504793 -10.875 57.125 C-13.20832956 57.11496487 -15.54166322 57.10583995 -17.875 57.09765625 C-23.583423 57.07565079 -29.29169259 57.04221427 -35 57 C-35 59.31 -35 61.62 -35 64 C-25.43 64 -15.86 64 -6 64 C-5.9175 66.84625 -5.835 69.6925 -5.75 72.625 C-5.71358398 73.51010254 -5.67716797 74.39520508 -5.63964844 75.30712891 C-5.56281094 80.8134033 -6.34304971 83.81482356 -10 88 C-10.66 88 -11.32 88 -12 88 C-12 88.66 -12 89.32 -12 90 C-18.73113816 92.02257757 -24.99282277 92.36632775 -32 92.375 C-33.0415625 92.39949219 -34.083125 92.42398438 -35.15625 92.44921875 C-43.43349935 92.48057197 -48.70957463 91.20457518 -54.68554688 85.38452148 C-57.7097369 81.61002245 -57.69462219 78.18847845 -57.59375 73.49609375 C-57.59379028 72.69518814 -57.59383057 71.89428253 -57.59387207 71.06910706 C-57.58853365 69.3839631 -57.57102276 67.69881835 -57.54199219 66.01391602 C-57.50006427 63.44144305 -57.50093413 60.87158599 -57.5078125 58.29882812 C-57.49732096 56.6562319 -57.48438304 55.01364909 -57.46875 53.37109375 C-57.46854858 52.60639267 -57.46834717 51.84169159 -57.46813965 51.05381775 C-57.36832114 46.53068125 -56.75965353 43.61465635 -54 40 C-51.3710719 37.61753391 -50.61165822 37 -47 37 C-47 36.34 -47 35.68 -47 35 C-45.96593018 34.9906543 -44.93186035 34.98130859 -43.86645508 34.97167969 C-40.01755224 34.93170579 -36.16944254 34.86592751 -32.32104492 34.79248047 C-30.65773737 34.76431351 -28.99429704 34.74307767 -27.33081055 34.72900391 C-24.93469475 34.70751408 -22.54016816 34.66083712 -20.14453125 34.609375 C-19.4047554 34.60814636 -18.66497955 34.60691772 -17.90278625 34.60565186 C-12.01644875 34.43991941 -9.44889235 32.47362864 -5.453125 28.4375 C-1.72067467 23.97794895 -0.93831695 20.91106353 -0.68359375 15.234375 C-0.62075195 13.90019531 -0.62075195 13.90019531 -0.55664062 12.5390625 C-0.51732422 11.61867187 -0.47800781 10.69828125 -0.4375 9.75 C-0.37272461 8.34621094 -0.37272461 8.34621094 -0.30664062 6.9140625 C-0.2008195 4.60951359 -0.09873443 2.30486161 0 0 Z " fill="#FBC10C" transform="translate(452,118)"/>
<path d="M0 0 C2.26921536 -0.13489391 4.5407067 -0.23193995 6.8125 -0.3125 C8.70935547 -0.39951172 8.70935547 -0.39951172 10.64453125 -0.48828125 C14 0 14 0 15.92578125 2.3046875 C17.31852411 5.79920595 17.39361383 8.26066858 17 12 C15.5 15.4375 15.5 15.4375 14 18 C14.33 18.33 14.66 18.66 15 19 C15.0928726 20.41225046 15.11746772 21.82908934 15.11352539 23.24438477 C15.11341209 24.59567223 15.11341209 24.59567223 15.11329651 25.97425842 C15.10813522 26.95341721 15.10297394 27.93257599 15.09765625 28.94140625 C15.0962413 29.93881332 15.09482635 30.9362204 15.09336853 31.96385193 C15.08775114 35.16343124 15.07519571 38.36294169 15.0625 41.5625 C15.05748724 43.72591045 15.05292395 45.88932199 15.04882812 48.05273438 C15.03777607 53.36851325 15.02102104 58.68425171 15 64 C13.74703125 64.04898438 12.4940625 64.09796875 11.203125 64.1484375 C9.55206179 64.22348583 7.90102119 64.29903277 6.25 64.375 C5.425 64.4059375 4.6 64.436875 3.75 64.46875 C2.95078125 64.50742188 2.1515625 64.54609375 1.328125 64.5859375 C0.5949707 64.6173584 -0.13818359 64.6487793 -0.89355469 64.68115234 C-3.24922918 65.03772523 -4.93450591 65.83662883 -7 67 C-7.33 66.67 -7.66 66.34 -8 66 C-9.55074219 66.01740234 -9.55074219 66.01740234 -11.1328125 66.03515625 C-21.73398058 66.10776699 -21.73398058 66.10776699 -25.375 62.921875 C-27.09956597 60.35042395 -28.55863247 57.73818531 -30 55 C-30.94204455 53.76250703 -31.91634416 52.54806332 -32.9375 51.375 C-33.618125 50.59125 -34.29875 49.8075 -35 49 C-35.99 49.495 -35.99 49.495 -37 50 C-37.47001033 53.27555608 -37.47001033 53.27555608 -37.625 57.0625 C-37.74875 59.351875 -37.8725 61.64125 -38 64 C-43.28 64 -48.56 64 -54 64 C-54 43.54 -54 23.08 -54 2 C-48.72 2 -43.44 2 -38 2 C-38 13.22 -38 24.44 -38 36 C-34.49099851 32.49099851 -31.35866934 29.13574602 -28.25 25.3125 C-27.47140625 24.35988281 -26.6928125 23.40726563 -25.890625 22.42578125 C-24.00013941 20.1645281 -24.00013941 20.1645281 -23 18 C-20.64660148 17.55873778 -18.37441756 17.25741349 -16 17 C-14.91912109 16.82597656 -14.91912109 16.82597656 -13.81640625 16.6484375 C-8.31508763 15.8284836 -4.31457373 16.35731357 1 18 C0.65213292 16.02463255 0.65213292 16.02463255 0 14 C-0.66 13.67 -1.32 13.34 -2 13 C-2 9.7 -2 6.4 -2 3 C-1.34 3 -0.68 3 0 3 C0 2.01 0 1.02 0 0 Z " fill="#1577EA" transform="translate(140,108)"/>
<path d="M0 0 C2.26921536 -0.13489391 4.5407067 -0.23193995 6.8125 -0.3125 C8.70935547 -0.39951172 8.70935547 -0.39951172 10.64453125 -0.48828125 C14 0 14 0 15.92578125 2.3046875 C17.31852411 5.79920595 17.39361383 8.26066858 17 12 C15.5 15.4375 15.5 15.4375 14 18 C14.33 18.33 14.66 18.66 15 19 C15.0928726 20.41225046 15.11746772 21.82908934 15.11352539 23.24438477 C15.11344986 24.14524307 15.11337433 25.04610138 15.11329651 25.97425842 C15.10813522 26.95341721 15.10297394 27.93257599 15.09765625 28.94140625 C15.0962413 29.93881332 15.09482635 30.9362204 15.09336853 31.96385193 C15.08775114 35.16343124 15.07519571 38.36294169 15.0625 41.5625 C15.05748724 43.72591045 15.05292395 45.88932199 15.04882812 48.05273438 C15.03777607 53.36851325 15.02102104 58.68425171 15 64 C13.74703125 64.04898438 12.4940625 64.09796875 11.203125 64.1484375 C9.55206179 64.22348583 7.90102119 64.29903277 6.25 64.375 C5.425 64.4059375 4.6 64.436875 3.75 64.46875 C2.95078125 64.50742188 2.1515625 64.54609375 1.328125 64.5859375 C0.5949707 64.6173584 -0.13818359 64.6487793 -0.89355469 64.68115234 C-3.24922918 65.03772523 -4.93450591 65.83662883 -7 67 C-7.495 66.505 -7.495 66.505 -8 66 C-10.52596259 65.76346477 -13.03107207 65.57826308 -15.5625 65.4375 C-16.27341797 65.39431641 -16.98433594 65.35113281 -17.71679688 65.30664062 C-19.47761912 65.20028223 -21.2387832 65.09961154 -23 65 C-23 64.67 -23 64.34 -23 64 C-14.585 63.505 -14.585 63.505 -6 63 C-11.75947908 55.40068733 -17.51962158 48.00532528 -24 41 C-22.66000502 37.993182 -21.20154709 36.00237391 -18.8125 33.75 C-15.50847881 30.54966148 -12.47586269 27.18813298 -9.48046875 23.69921875 C-8.36828828 22.42270555 -7.19716986 21.19716986 -6 20 C-11.61 19.67 -17.22 19.34 -23 19 C-19.64272529 16.76181686 -17.90356311 16.88252623 -13.9765625 17.00390625 C-11.89010251 17.07904917 -11.89010251 17.07904917 -9.5 16.375 C-5.69871057 15.80480659 -2.67612304 16.94077811 1 18 C0.65213292 16.02463255 0.65213292 16.02463255 0 14 C-0.66 13.67 -1.32 13.34 -2 13 C-2 9.7 -2 6.4 -2 3 C-1.34 3 -0.68 3 0 3 C0 2.01 0 1.02 0 0 Z " fill="#FBFDFD" transform="translate(140,108)"/>
<path d="M0 0 C4.17834541 3.01894866 6.53282457 6.66097372 8.16796875 11.56640625 C8.16796875 15.52640625 8.16796875 19.48640625 8.16796875 23.56640625 C-2.06203125 23.56640625 -12.29203125 23.56640625 -22.83203125 23.56640625 C-19.99869792 31.23307292 -19.99869792 31.23307292 -16.83203125 32.56640625 C-12.63548036 33.00723617 -12.63548036 33.00723617 -9.01953125 31.19140625 C-7.76215952 29.56553828 -7.76215952 29.56553828 -6.83203125 27.56640625 C-1.88203125 27.56640625 3.06796875 27.56640625 8.16796875 27.56640625 C6.08191273 33.8245743 4.591733 37.7508586 -1.21875 40.83203125 C-8.61302775 43.82771582 -15.84441039 45.17439814 -23.5703125 42.68359375 C-30.81029899 39.44437016 -34.35007122 35.44773015 -37.14453125 28.12890625 C-38.73689105 19.87758727 -37.98863538 12.85866663 -33.6484375 5.58203125 C-25.58540927 -5.10776255 -11.15511441 -6.22487307 0 0 Z " fill="#2677CE" transform="translate(286.83203125,129.43359375)"/>
<path d="M0 0 C3.20408634 2.41941213 4.40802721 3.70675387 6.0625 7.3125 C6.31489537 10.2502374 6.41337237 12.96445767 6.35546875 15.89453125 C6.35122391 16.70871017 6.34697906 17.5228891 6.34260559 18.36174011 C6.32587753 20.94983668 6.28823712 23.53714071 6.25 26.125 C6.23494553 27.88475434 6.22125846 29.64452095 6.20898438 31.40429688 C6.17599336 35.70733437 6.1242524 40.00978303 6.0625 44.3125 C1.1125 44.3125 -3.8375 44.3125 -8.9375 44.3125 C-8.99357422 40.89970703 -8.99357422 40.89970703 -9.05078125 37.41796875 C-9.09699722 35.21368818 -9.14823034 33.00957738 -9.19995117 30.80541992 C-9.23319818 29.27394941 -9.26123093 27.74235644 -9.28393555 26.21069336 C-9.31748718 24.00842113 -9.3697991 21.80727088 -9.42578125 19.60546875 C-9.43217117 18.92099167 -9.4385611 18.23651459 -9.44514465 17.53129578 C-9.53285954 14.693292 -9.62970013 12.75093229 -11.28588867 10.3918457 C-14.00521489 8.61473687 -15.787274 8.73388706 -18.9375 9.3125 C-22.49840115 13.61545742 -23.44900394 16.71247254 -23.546875 22.2421875 C-23.57910156 23.53125 -23.61132812 24.8203125 -23.64453125 26.1484375 C-23.6592723 27.49478715 -23.67359 28.8411415 -23.6875 30.1875 C-23.71568712 31.55732903 -23.74561837 32.92712335 -23.77734375 34.296875 C-23.8478696 37.63509856 -23.89496882 40.97380242 -23.9375 44.3125 C-28.8875 44.3125 -33.8375 44.3125 -38.9375 44.3125 C-38.9375 29.4625 -38.9375 14.6125 -38.9375 -0.6875 C-33.9875 -0.6875 -29.0375 -0.6875 -23.9375 -0.6875 C-23.6075 0.9625 -23.2775 2.6125 -22.9375 4.3125 C-22.195 3.508125 -21.4525 2.70375 -20.6875 1.875 C-15.37935765 -3.07122355 -6.39986374 -3.37694938 0 0 Z " fill="#1676E6" transform="translate(202.9375,127.6875)"/>
<path d="M0 0 C17.49 0 34.98 0 53 0 C53 3.96 53 7.92 53 12 C46.73 12 40.46 12 34 12 C34 27.18 34 42.36 34 58 C29.05 58 24.1 58 19 58 C19 42.49 19 26.98 19 11 C12.73 11 6.46 11 0 11 C0 7.37 0 3.74 0 0 Z " fill="#1B74DE" transform="translate(30,114)"/>
<path d="M0 0 C4.95 0 9.9 0 15 0 C15 3.96 15 7.92 15 12 C18.3 12 21.6 12 25 12 C25 14.97 25 17.94 25 21 C21.7 21 18.4 21 15 21 C15.14033182 24.79194483 15.28700628 28.58345678 15.4375 32.375 C15.47681641 33.45523438 15.51613281 34.53546875 15.55664062 35.6484375 C15.59853516 36.6796875 15.64042969 37.7109375 15.68359375 38.7734375 C15.72025146 39.72653809 15.75690918 40.67963867 15.79467773 41.66162109 C15.85763465 44.02132349 15.85763465 44.02132349 17 46 C19.32156597 46.40729228 21.6568787 46.74438677 24 47 C24 50.3 24 53.6 24 57 C21.28996573 57.1358035 18.58681059 57.23444624 15.875 57.3125 C15.11445313 57.35439453 14.35390625 57.39628906 13.5703125 57.43945312 C9.44350613 57.52839292 6.80003068 57.29210081 3.5078125 54.66796875 C-0.22602423 50.69567827 -0.12145491 47.84153504 -0.09765625 42.58203125 C-0.09443359 41.32841797 -0.09121094 40.07480469 -0.08789062 38.78320312 C-0.07951172 37.47287109 -0.07113281 36.16253906 -0.0625 34.8125 C-0.05748317 33.47721519 -0.05292059 32.14192859 -0.04882812 30.80664062 C-0.03702695 27.53771527 -0.02056297 24.26888009 0 21 C-2.31 21 -4.62 21 -7 21 C-7 17.7 -7 14.4 -7 11 C-4.69 11 -2.38 11 0 11 C0 7.37 0 3.74 0 0 Z " fill="#1676EA" transform="translate(221,116)"/>
<path d="M0 0 C0 4.29 0 8.58 0 13 C-2.10375 13.12375 -2.10375 13.12375 -4.25 13.25 C-7.59133172 13.61250297 -8.77469677 13.82539 -11.5 15.9375 C-14.02332878 19.40707707 -14.17136486 21.61445153 -14.31640625 25.8828125 C-14.35830078 27.04941406 -14.40019531 28.21601563 -14.44335938 29.41796875 C-14.48267578 30.64128906 -14.52199219 31.86460937 -14.5625 33.125 C-14.60568359 34.35605469 -14.64886719 35.58710938 -14.69335938 36.85546875 C-14.79968623 39.90350512 -14.90036972 42.95173739 -15 46 C-20.28 46 -25.56 46 -31 46 C-31 31.15 -31 16.3 -31 1 C-25.72 1 -20.44 1 -15 1 C-14.67 2.65 -14.34 4.3 -14 6 C-13.236875 5.195625 -12.47375 4.39125 -11.6875 3.5625 C-7.53692995 -0.39502028 -5.98128451 0 0 0 Z " fill="#1677E9" transform="translate(333,126)"/>
<path d="M0 0 C5.28 0 10.56 0 16 0 C16 11.22 16 22.44 16 34 C20.79227618 29.54646264 20.79227618 29.54646264 23.04296875 25.88671875 C28.60447221 17.59004966 28.60447221 17.59004966 33.21826172 16.45361328 C38.52367372 15.9502111 43.72135844 16.37898335 49 17 C48.59048096 17.47606689 48.18096191 17.95213379 47.7590332 18.44262695 C44.4709551 22.26678665 41.21935844 26.11783247 38 30 C37.06934867 27.39417629 36.85082593 26.35801776 37.9375 23.75 C38.4634375 22.88375 38.4634375 22.88375 39 22 C39.99 22.33 40.98 22.66 42 23 C41.505 21.515 41.505 21.515 41 20 C41.99 20 42.98 20 44 20 C44 19.34 44 18.68 44 18 C43.01 18.495 43.01 18.495 42 19 C40.12620395 19.07033769 38.24998898 19.0843022 36.375 19.0625 C35.37210938 19.05347656 34.36921875 19.04445312 33.3359375 19.03515625 C32.56507812 19.02355469 31.79421875 19.01195312 31 19 C30.70738281 19.59941406 30.41476563 20.19882813 30.11328125 20.81640625 C28.04539752 24.87236066 25.70067656 28.31641311 22.4375 31.5 C19.85083756 34.15298711 18.48921367 36.62967432 17 40 C16.01 40 15.02 40 14 40 C13.34 43.3 12.68 46.6 12 50 C11.34 50 10.68 50 10 50 C10 49.34 10 48.68 10 48 C9.34 48 8.68 48 8 48 C8 39.42 8 30.84 8 22 C9.32 22 10.64 22 12 22 C11.47731534 24.76276177 10.89130413 27.3260876 10 30 C10.66 30 11.32 30 12 30 C12.33 20.76 12.66 11.52 13 2 C11.35 2 9.7 2 8 2 C8 3.65 8 5.3 8 7 C6.35 7.33 4.7 7.66 3 8 C2.67 25.16 2.34 42.32 2 60 C7.94 59.505 7.94 59.505 14 59 C13.95875 57.453125 13.9175 55.90625 13.875 54.3125 C13.86395536 50.41926271 14.13274312 47.50110665 16 44 C21.47826087 44.60869565 21.47826087 44.60869565 23.75 46.3125 C25.09382624 48.12666543 26.0774519 49.94200809 27 52 C27.33 50.68 27.66 49.36 28 48 C29.65 48 31.3 48 33 48 C33 49.65 33 51.3 33 53 C32.01 53 31.02 53 30 53 C30.66 55.31 31.32 57.62 32 60 C38.93 60.495 38.93 60.495 46 61 C46 60.34 46 59.68 46 59 C45.34 59 44.68 59 44 59 C43.7525 58.38125 43.505 57.7625 43.25 57.125 C42.19483268 54.8637196 42.19483268 54.8637196 40.0625 54.125 C36.28764597 52.06598871 35.30192511 47.90577532 34 44 C32.02 44 30.04 44 28 44 C28.33 41.69 28.66 39.38 29 37 C36.68717019 44.50871802 43.6210563 52.67649759 49 62 C46.10190611 62.16250994 43.21295149 62.28107636 40.3125 62.375 C39.49587891 62.42527344 38.67925781 62.47554687 37.83789062 62.52734375 C35.42676953 62.58591349 33.35293515 62.53870989 31 62 C28.11328125 59.25 28.11328125 59.25 26 56 C25.44054687 55.22914063 24.88109375 54.45828125 24.3046875 53.6640625 C23.34249741 52.2917586 22.38422875 50.91669771 21.4296875 49.5390625 C20.95789063 49.03117187 20.48609375 48.52328125 20 48 C19.01 48 18.02 48 17 48 C16.67 52.62 16.34 57.24 16 62 C10.72 62 5.44 62 0 62 C0 41.54 0 21.08 0 0 Z " fill="#3F8CE2" transform="translate(86,110)"/>
<path d="M0 0 C4.95 0 9.9 0 15 0 C15 14.85 15 29.7 15 45 C10.05 45 5.1 45 0 45 C0 30.15 0 15.3 0 0 Z " fill="#1677E8" transform="translate(140,127)"/>
<path d="M0 0 C0 0.66 0 1.32 0 2 C1.1446875 2.1546875 1.1446875 2.1546875 2.3125 2.3125 C5.32885503 3.08412571 6.23182482 3.47403546 8 6 C9.68461436 10.96119313 10.23868114 15.23892282 10.1953125 20.46484375 C10.1924826 21.14301651 10.18965271 21.82118927 10.18673706 22.51991272 C10.17565416 24.65929766 10.1505736 26.7982443 10.125 28.9375 C10.11495476 30.39908244 10.10583163 31.86067153 10.09765625 33.32226562 C10.07575425 36.88164979 10.04130866 40.44078203 10 44 C6.04 44 2.08 44 -2 44 C-2 33.44 -2 22.88 -2 12 C-2.66 12 -3.32 12 -4 12 C-4.66 11.01 -5.32 10.02 -6 9 C-8.42521494 8.41810734 -8.42521494 8.41810734 -11.125 8.3125 C-12.03507813 8.24675781 -12.94515625 8.18101562 -13.8828125 8.11328125 C-14.93082031 8.05720703 -14.93082031 8.05720703 -16 8 C-13.97533293 -1.09190118 -8.12374839 -0.50423266 0 0 Z " fill="#1676E8" transform="translate(198,127)"/>
<path d="M0 0 C-3 2 -3 2 -6.75 1.8125 C-11.79596941 1.63495663 -14.21336517 3.84447098 -18 7 C-17.67 7.33 -17.34 7.66 -17 8 C-15.2490026 7.9412417 -13.49895973 7.85287998 -11.75 7.75 C-7.49125238 7.7001577 -6.37925584 7.72485361 -2.8125 10.3125 C-1 13 -1 13 -1 16 C-5.95 16 -10.9 16 -16 16 C-15.67 14.35 -15.34 12.7 -15 11 C-15.99 11.495 -15.99 11.495 -17 12 C-17 13.32 -17 14.64 -17 16 C-13.03302114 17.80317221 -9.3177458 18.49202991 -5 19 C-5 19.33 -5 19.66 -5 20 C-7.64 20 -10.28 20 -13 20 C-13 20.66 -13 21.32 -13 22 C-14.65 22.66 -16.3 23.32 -18 24 C-17.44687265 28.02992782 -16.8441938 32.02022924 -16 36 C-20.75 35.125 -20.75 35.125 -23 34 C-23.66 35.32 -24.32 36.64 -25 38 C-28 34.375 -28 34.375 -28 31 C-28.66 31 -29.32 31 -30 31 C-30.55353075 15.07061503 -30.55353075 15.07061503 -27 9 C-26.34 9 -25.68 9 -25 9 C-24.814375 8.0409375 -24.814375 8.0409375 -24.625 7.0625 C-24.41875 6.381875 -24.2125 5.70125 -24 5 C-23.34 4.67 -22.68 4.34 -22 4 C-21.34 4.33 -20.68 4.66 -20 5 C-20 4.34 -20 3.68 -20 3 C-19.01 3 -18.02 3 -17 3 C-17 2.34 -17 1.68 -17 1 C-10.90660831 -0.88341198 -6.27467799 -1.0748291 0 0 Z " fill="#1776E8" transform="translate(281,128)"/>
<path d="M0 0 C0.33 0 0.66 0 1 0 C1 3.63 1 7.26 1 11 C2.629375 10.979375 4.25875 10.95875 5.9375 10.9375 C7.62499341 10.91613932 9.31391034 10.92794489 11 11 C12.58272601 12.58272601 12.34735747 14.38034003 12.5625 16.5625 C12.64628906 17.38878906 12.73007813 18.21507812 12.81640625 19.06640625 C12.87699219 19.70449219 12.93757812 20.34257812 13 21 C13.66 21 14.32 21 15 21 C15.33 19.35 15.66 17.7 16 16 C16.99 16 17.98 16 19 16 C19 15.34 19 14.68 19 14 C20.32 13.67 21.64 13.34 23 13 C23 12.34 23 11.68 23 11 C31.65351793 8.23087426 41.13695351 7.91359546 50 10 C50 10.99 50 11.98 50 13 C49.071875 12.67 48.14375 12.34 47.1875 12 C39.25186396 9.79210126 31.64764888 10.34053054 24.16015625 13.74609375 C18.59773805 16.97491155 16.24799454 21.77172878 14.5 27.7109375 C13.0370655 34.40843453 14.3028109 40.4536992 16 47 C14.02 47.495 14.02 47.495 12 48 C12.020625 48.94875 12.04125 49.8975 12.0625 50.875 C12 54 12 54 11 56 C10.34 56 9.68 56 9 56 C9 53.03 9 50.06 9 47 C7.88625 47.061875 6.7725 47.12375 5.625 47.1875 C4.42875 47.125625 3.2325 47.06375 2 47 C-0.23413013 43.64880481 -0.23847762 42.5822245 -0.1953125 38.67578125 C-0.18886719 37.64775391 -0.18242187 36.61972656 -0.17578125 35.56054688 C-0.15902344 34.48869141 -0.14226562 33.41683594 -0.125 32.3125 C-0.11597656 31.22904297 -0.10695312 30.14558594 -0.09765625 29.02929688 C-0.07407452 26.35277052 -0.03820336 23.67635759 0 21 C3.3 21 6.6 21 10 21 C10 18.03 10 15.06 10 12 C6.7 12 3.4 12 0 12 C0 8.04 0 4.08 0 0 Z " fill="#EAF6FB" transform="translate(236,116)"/>
<path d="M0 0 C2.26921536 -0.13489391 4.5407067 -0.23193995 6.8125 -0.3125 C8.70935547 -0.39951172 8.70935547 -0.39951172 10.64453125 -0.48828125 C14 0 14 0 15.92578125 2.3046875 C17.31852411 5.79920595 17.39361383 8.26066858 17 12 C15.5 15.375 15.5 15.375 14 18 C14 18.33 14 18.66 14 19 C9.38 19 4.76 19 0 19 C0 33.85 0 48.7 0 64 C-0.33 64 -0.66 64 -1 64 C-1.02505615 63.08822998 -1.0501123 62.17645996 -1.07592773 61.23706055 C-1.17197923 57.8020761 -1.27114606 54.36720918 -1.37231445 50.93237305 C-1.41519861 49.45551988 -1.45689827 47.97863175 -1.49731445 46.50170898 C-1.73160941 37.97163714 -2.07169707 29.48913099 -3 21 C-3.45375 21.825 -3.9075 22.65 -4.375 23.5 C-4.91125 24.325 -5.4475 25.15 -6 26 C-6.66 26 -7.32 26 -8 26 C-8 26.66 -8 27.32 -8 28 C-9.59210424 29.25135868 -11.22465243 30.4515234 -12.875 31.625 C-16.38907243 34.33500501 -18.59443263 36.11228135 -19.625 40.5 C-19.810625 42.2325 -19.810625 42.2325 -20 44 C-21.32 43.01 -22.64 42.02 -24 41 C-22.66000502 37.993182 -21.20154709 36.00237391 -18.8125 33.75 C-15.50847881 30.54966148 -12.47586269 27.18813298 -9.48046875 23.69921875 C-8.36828828 22.42270555 -7.19716986 21.19716986 -6 20 C-11.61 19.67 -17.22 19.34 -23 19 C-19.64272529 16.76181686 -17.90356311 16.88252623 -13.9765625 17.00390625 C-11.89010251 17.07904917 -11.89010251 17.07904917 -9.5 16.375 C-5.69871057 15.80480659 -2.67612304 16.94077811 1 18 C0.65213292 16.02463255 0.65213292 16.02463255 0 14 C-0.66 13.67 -1.32 13.34 -2 13 C-2 9.7 -2 6.4 -2 3 C-1.34 3 -0.68 3 0 3 C0 2.01 0 1.02 0 0 Z " fill="#CEEAF8" transform="translate(140,108)"/>
<path d="M0 0 C0.495 1.485 0.495 1.485 1 3 C1.99 3 2.98 3 4 3 C4 4.65 4 6.3 4 8 C3.01 8.33 2.02 8.66 1 9 C0.690625 9.61875 0.38125 10.2375 0.0625 10.875 C-1.30414888 13.60829777 -2.32744301 14.48028448 -5 16 C-7.76265164 16.25658449 -10.29075559 16.35025594 -13.046875 16.29296875 C-13.81807678 16.28872391 -14.58927856 16.28447906 -15.3838501 16.28010559 C-17.83959315 16.26335383 -20.29450629 16.22570939 -22.75 16.1875 C-24.41795687 16.17244857 -26.08592665 16.15876097 -27.75390625 16.14648438 C-31.83625578 16.11346194 -35.91798732 16.06170484 -40 16 C-40 16.66 -40 17.32 -40 18 C-43.96 18.495 -43.96 18.495 -48 19 C-48.268125 19.9075 -48.53625 20.815 -48.8125 21.75 C-49.89576294 24.71471963 -50.98359457 26.6169754 -53 29 C-53 28.01 -53 27.02 -53 26 C-53.66 26 -54.32 26 -55 26 C-54.97679687 27.03640625 -54.95359375 28.0728125 -54.9296875 29.140625 C-54.91092333 30.51040944 -54.89272382 31.8802017 -54.875 33.25 C-54.84986328 34.27287109 -54.84986328 34.27287109 -54.82421875 35.31640625 C-54.78687849 39.16245258 -55.13878271 41.66397731 -57 45 C-57.08797281 41.81267746 -57.14071341 38.62567212 -57.1875 35.4375 C-57.21263672 34.54224609 -57.23777344 33.64699219 -57.26367188 32.72460938 C-57.33782913 25.97629945 -56.70923431 21.0478886 -52.0625 15.8203125 C-51.381875 15.26085937 -50.70125 14.70140625 -50 14.125 C-49.319375 13.55007812 -48.63875 12.97515625 -47.9375 12.3828125 C-44.08914378 9.63620342 -40.57356078 9.87677314 -35.98828125 9.859375 C-34.57615589 9.84103584 -33.1640461 9.82146452 -31.75195312 9.80078125 C-29.53790154 9.77192889 -27.32484692 9.75000274 -25.1105957 9.74951172 C-13.12289944 9.87111572 -13.12289944 9.87111572 -3 4 C-1.04591976 1.87860167 -1.04591976 1.87860167 0 0 Z " fill="#F0F8F3" transform="translate(445,137)"/>
<path d="M0 0 C3.66273715 2.85872168 5.85492251 5.66932894 7.5625 10 C7.77001953 12.84570312 7.77001953 12.84570312 7.6953125 15.78125 C7.6761377 16.76158203 7.65696289 17.74191406 7.63720703 18.75195312 C7.61255371 19.49380859 7.58790039 20.23566406 7.5625 21 C3.77084926 21.0289337 -0.02077327 21.04677601 -3.8125 21.0625 C-4.89273437 21.07087891 -5.97296875 21.07925781 -7.0859375 21.08789062 C-8.6328125 21.09272461 -8.6328125 21.09272461 -10.2109375 21.09765625 C-11.16403809 21.10289307 -12.11713867 21.10812988 -13.09912109 21.11352539 C-15.4375 21 -15.4375 21 -17.4375 20 C-17.4375 18.68 -17.4375 17.36 -17.4375 16 C-19.9125 15.01 -19.9125 15.01 -22.4375 14 C-22.1075 12.35 -21.7775 10.7 -21.4375 9 C-20.4475 9 -19.4575 9 -18.4375 9 C-19.0975 10.65 -19.7575 12.3 -20.4375 14 C-15.4875 14 -10.5375 14 -5.4375 14 C-7.60416667 8.16666667 -7.60416667 8.16666667 -10.4375 7 C-13.26614061 7.00873037 -16.08056061 7.13140008 -18.90625 7.2578125 C-19.7415625 7.17273438 -20.576875 7.08765625 -21.4375 7 C-22.0975 6.01 -22.7575 5.02 -23.4375 4 C-16.24654519 -1.92196279 -8.86786841 -2.57974354 0 0 Z " fill="#1577EB" transform="translate(285.4375,130)"/>
<path d="M0 0 C4.62 0 9.24 0 14 0 C14 10.89 14 21.78 14 33 C13.67 33 13.34 33 13 33 C13 22.44 13 11.88 13 1 C11.02 1 9.04 1 7 1 C7 2.65 7 4.3 7 6 C5.35 6.33 3.7 6.66 2 7 C1.67 24.16 1.34 41.32 1 59 C6.94 58.505 6.94 58.505 13 58 C12.95875 56.453125 12.9175 54.90625 12.875 53.3125 C12.86395536 49.41926271 13.13274312 46.50110665 15 43 C20.47826087 43.60869565 20.47826087 43.60869565 22.75 45.3125 C24.09382624 47.12666543 25.0774519 48.94200809 26 51 C26.33 49.68 26.66 48.36 27 47 C28.65 47 30.3 47 32 47 C32 48.65 32 50.3 32 52 C31.01 52 30.02 52 29 52 C29.66 54.31 30.32 56.62 31 59 C37.93 59.495 37.93 59.495 45 60 C45 59.34 45 58.68 45 58 C44.34 58 43.68 58 43 58 C42.7525 57.38125 42.505 56.7625 42.25 56.125 C41.19483268 53.8637196 41.19483268 53.8637196 39.0625 53.125 C35.28764597 51.06598871 34.30192511 46.90577532 33 43 C31.02 43 29.04 43 27 43 C27.33 40.69 27.66 38.38 28 36 C35.68717019 43.50871802 42.6210563 51.67649759 48 61 C45.10190611 61.16250994 42.21295149 61.28107636 39.3125 61.375 C38.49587891 61.42527344 37.67925781 61.47554687 36.83789062 61.52734375 C34.42676953 61.58591349 32.35293515 61.53870989 30 61 C27.11328125 58.25 27.11328125 58.25 25 55 C24.44054687 54.22914063 23.88109375 53.45828125 23.3046875 52.6640625 C22.34249741 51.2917586 21.38422875 49.91669771 20.4296875 48.5390625 C19.95789063 48.03117187 19.48609375 47.52328125 19 47 C18.01 47 17.02 47 16 47 C15.67 51.62 15.34 56.24 15 61 C10.05 61 5.1 61 0 61 C0 40.87 0 20.74 0 0 Z " fill="#246DC0" transform="translate(87,111)"/>
<path d="M0 0 C9.57 0 19.14 0 29 0 C29.0825 2.84625 29.165 5.6925 29.25 8.625 C29.28641602 9.51010254 29.32283203 10.39520508 29.36035156 11.30712891 C29.43718906 16.8134033 28.65695029 19.81482356 25 24 C24.34 24 23.68 24 23 24 C23 24.66 23 25.32 23 26 C19.04 26.495 19.04 26.495 15 27 C15.33 26.34 15.66 25.68 16 25 C17.65 25 19.3 25 21 25 C20.67 22.69 20.34 20.38 20 18 C18.35 18 16.7 18 15 18 C12.85663839 14.5233662 12.78722374 11.78770805 12.875 7.75 C12.89304687 6.67234375 12.91109375 5.5946875 12.9296875 4.484375 C12.96449219 3.25460938 12.96449219 3.25460938 13 2 C9.7 2 6.4 2 3 2 C3 3.32 3 4.64 3 6 C1.68 6 0.36 6 -1 6 C-0.67 4.02 -0.34 2.04 0 0 Z " fill="#F8BF16" transform="translate(417,182)"/>
<path d="M0 0 C0 4.29 0 8.58 0 13 C-2.10375 13.12375 -2.10375 13.12375 -4.25 13.25 C-7.59133172 13.61250297 -8.77469677 13.82539 -11.5 15.9375 C-14.02332878 19.40707707 -14.17136486 21.61445153 -14.31640625 25.8828125 C-14.35830078 27.04941406 -14.40019531 28.21601563 -14.44335938 29.41796875 C-14.48267578 30.64128906 -14.52199219 31.86460937 -14.5625 33.125 C-14.60568359 34.35605469 -14.64886719 35.58710938 -14.69335938 36.85546875 C-14.79968704 39.90352853 -14.90171781 42.9516719 -15 46 C-15.66 45.67 -16.32 45.34 -17 45 C-18.99960012 44.960008 -21.00047242 44.95653201 -23 45 C-23 44.67 -23 44.34 -23 44 C-21.35 44 -19.7 44 -18 44 C-18.00523682 43.40050537 -18.01047363 42.80101074 -18.01586914 42.18334961 C-18.03681443 39.43474398 -18.04971556 36.68615522 -18.0625 33.9375 C-18.07087891 32.99455078 -18.07925781 32.05160156 -18.08789062 31.08007812 C-18.10573446 25.95889863 -18.08283619 21.01918408 -17 16 C-16.34 15.67 -15.68 15.34 -15 15 C-15.66 14.34 -16.32 13.68 -17 13 C-16.67 12.01 -16.34 11.02 -16 10 C-16.09268505 7.93381251 -16.09268505 7.93381251 -16.4375 5.8125 C-16.623125 4.554375 -16.80875 3.29625 -17 2 C-21.29 2 -25.58 2 -30 2 C-30 16.52 -30 31.04 -30 46 C-30.33 46 -30.66 46 -31 46 C-31 31.15 -31 16.3 -31 1 C-25.72 1 -20.44 1 -15 1 C-14.67 2.65 -14.34 4.3 -14 6 C-13.236875 5.195625 -12.47375 4.39125 -11.6875 3.5625 C-7.53692995 -0.39502028 -5.98128451 0 0 0 Z " fill="#5190D5" transform="translate(333,126)"/>
<path d="M0 0 C1.19471924 0.01341431 1.19471924 0.01341431 2.41357422 0.02709961 C11.77169649 0.21211473 17.5083359 0.98707247 24.59375 7.49609375 C28.90515962 12.43441752 27.46971997 21.22485372 27.5300293 27.47265625 C27.55158712 29.15060027 27.58566447 30.8284325 27.63256836 32.50585938 C28.06809974 48.24078665 28.06809974 48.24078665 24.47265625 52.703125 C19.56771614 57.2720207 14.31954854 58.61960445 7.75 58.65625 C7.06244629 58.66708618 6.37489258 58.67792236 5.66650391 58.68908691 C2.75104142 58.73458931 -0.1643248 58.74638053 -3.08007812 58.76123047 C-5.22036552 58.77701007 -7.35993199 58.81002149 -9.5 58.84375 C-11.40652344 58.85438477 -11.40652344 58.85438477 -13.3515625 58.86523438 C-17.16441321 59.28160444 -19.57501814 60.34597821 -22.875 62.25 C-23.865 62.745 -23.865 62.745 -24.875 63.25 C-24.917721 61.58388095 -24.91563832 59.91617115 -24.875 58.25 C-21.35069627 54.72569627 -10.30771526 56.15996848 -5.6328125 56.07421875 C-3.75722656 56.03844727 -3.75722656 56.03844727 -1.84375 56.00195312 C0.74201281 55.9585943 3.32800863 55.92755982 5.9140625 55.90820312 C7.15671875 55.88048828 8.399375 55.85277344 9.6796875 55.82421875 C10.79843262 55.80963623 11.91717773 55.79505371 13.06982422 55.7800293 C16.90763233 55.11422449 18.44535759 54.06680299 21.125 51.25 C24.04003537 46.00420565 24.54166396 41.73750819 24.41796875 35.91015625 C24.41160149 34.75972084 24.41160149 34.75972084 24.40510559 33.58604431 C24.3884507 31.16115668 24.35082553 28.73713202 24.3125 26.3125 C24.29743601 24.65821522 24.28375062 23.00391727 24.27148438 21.34960938 C24.23859077 17.31607897 24.18690249 13.28318527 24.125 9.25 C23.465 9.25 22.805 9.25 22.125 9.25 C21.53589844 8.61578125 20.94679688 7.9815625 20.33984375 7.328125 C12.57634001 0.04384988 -5.92933581 3.06663078 -15.875 3.25 C-15.875 2.92 -15.875 2.59 -15.875 2.25 C-10.45180811 0.43747433 -5.70148945 -0.07152406 0 0 Z " fill="#267CAF" transform="translate(418.875,88.75)"/>
<path d="M0 0 C0.33 0.66 0.66 1.32 1 2 C1.99 2 2.98 2 4 2 C4.02480683 7.01708622 4.04291052 12.03413635 4.05493164 17.05126953 C4.05994564 18.75635399 4.0667585 20.46143418 4.07543945 22.16650391 C4.08763385 24.62403419 4.09325775 27.08150738 4.09765625 29.5390625 C4.10281754 30.29555084 4.10797882 31.05203918 4.11329651 31.83145142 C4.1137333 35.99682563 3.81657038 39.91432259 3 44 C3.66 44 4.32 44 5 44 C4.67 44.99 4.34 45.98 4 47 C3.01 47 2.02 47 1 47 C-0.67099977 47.31088368 -2.33871537 47.64080332 -4 48 C-4.02688151 46.35425434 -4.04634123 44.70838587 -4.0625 43.0625 C-4.07410156 42.14597656 -4.08570313 41.22945312 -4.09765625 40.28515625 C-4 38 -4 38 -3 37 C-2.84111908 34.71011219 -2.74861927 32.41556559 -2.68359375 30.12109375 C-2.66281265 29.4344313 -2.64203156 28.74776886 -2.62062073 28.04029846 C-2.55505857 25.83947065 -2.49620985 23.63852025 -2.4375 21.4375 C-2.39432108 19.94855486 -2.350707 18.45962227 -2.30664062 16.97070312 C-2.1993707 13.31393447 -2.09812228 9.65702682 -2 6 C-1.01 6 -0.02 6 1 6 C1 5.34 1 4.68 1 4 C0.34 4 -0.32 4 -1 4 C-0.67 2.68 -0.34 1.36 0 0 Z " fill="#1676EB" transform="translate(56,122)"/>
<path d="M0 0 C0.71857178 -0.02126953 1.43714355 -0.04253906 2.17749023 -0.06445312 C4.2109375 -0.078125 4.2109375 -0.078125 7.625 0.25 C8.615 1.24 9.605 2.23 10.625 3.25 C-5.215 3.745 -5.215 3.745 -21.375 4.25 C-21.705 4.91 -22.035 5.57 -22.375 6.25 C-25.00081138 7.82548683 -26.24599787 8.25 -29.375 8.25 C-29.643125 9.1575 -29.91125 10.065 -30.1875 11 C-31.27076294 13.96471963 -32.35859457 15.8669754 -34.375 18.25 C-34.375 17.26 -34.375 16.27 -34.375 15.25 C-35.035 15.25 -35.695 15.25 -36.375 15.25 C-36.35179687 16.28640625 -36.32859375 17.3228125 -36.3046875 18.390625 C-36.28592333 19.76040944 -36.26772382 21.1302017 -36.25 22.5 C-36.22486328 23.52287109 -36.22486328 23.52287109 -36.19921875 24.56640625 C-36.16187849 28.41245258 -36.51378271 30.91397731 -38.375 34.25 C-38.46297281 31.06267746 -38.51571341 27.87567212 -38.5625 24.6875 C-38.58763672 23.79224609 -38.61277344 22.89699219 -38.63867188 21.97460938 C-38.71007536 15.47689227 -37.93315412 10.73839198 -34 5.375 C-31.88794315 3.9128068 -29.87722963 3.71093704 -27.375 3.25 C-27.045 2.59 -26.715 1.93 -26.375 1.25 C-17.59060289 0.63432261 -8.80644393 0.13019637 0 0 Z " fill="#FDFCFB" transform="translate(426.375,147.75)"/>
<path d="M0 0 C3.3 0 6.6 0 10 0 C10 2.97 10 5.94 10 9 C6.7 9 3.4 9 0 9 C0.14033182 12.79194483 0.28700628 16.58345678 0.4375 20.375 C0.47681641 21.45523438 0.51613281 22.53546875 0.55664062 23.6484375 C0.61948242 25.1953125 0.61948242 25.1953125 0.68359375 26.7734375 C0.72025146 27.72653809 0.75690918 28.67963867 0.79467773 29.66162109 C0.85763465 32.02132349 0.85763465 32.02132349 2 34 C4.32156597 34.40729228 6.6568787 34.74438677 9 35 C9 38.3 9 41.6 9 45 C6.28996573 45.1358035 3.58681059 45.23444624 0.875 45.3125 C0.11445313 45.35439453 -0.64609375 45.39628906 -1.4296875 45.43945312 C-5.55649387 45.52839292 -8.19996932 45.29210081 -11.4921875 42.66796875 C-15.22602423 38.69567827 -15.12145491 35.84153504 -15.09765625 30.58203125 C-15.09443359 29.32841797 -15.09121094 28.07480469 -15.08789062 26.78320312 C-15.07951172 25.47287109 -15.07113281 24.16253906 -15.0625 22.8125 C-15.05748317 21.47721519 -15.05292059 20.14192859 -15.04882812 18.80664062 C-15.03702695 15.53771527 -15.02056297 12.26888009 -15 9 C-14.01 9.495 -14.01 9.495 -13 10 C-12.67 19.9 -12.34 29.8 -12 40 C-10.35 40.33 -8.7 40.66 -7 41 C-6.67 41.33 -6.34 41.66 -6 42 C-3.81360547 42.07258946 -1.62499611 42.08373783 0.5625 42.0625 C1.76003906 42.05347656 2.95757812 42.04445312 4.19140625 42.03515625 C5.58166016 42.01775391 5.58166016 42.01775391 7 42 C7 40.68 7 39.36 7 38 C6.01 38 5.02 38 4 38 C4 37.34 4 36.68 4 36 C2.68 36 1.36 36 0 36 C-2.13412866 31.73174267 -1.53714991 26.19827646 -1.75 21.5 C-1.81832031 20.33339844 -1.88664063 19.16679687 -1.95703125 17.96484375 C-2.03244141 16.29615234 -2.03244141 16.29615234 -2.109375 14.59375 C-2.18623535 13.05750977 -2.18623535 13.05750977 -2.26464844 11.49023438 C-2.17731445 10.66845703 -2.08998047 9.84667969 -2 9 C1.08888522 6.94074319 1.70935927 6.7609626 5.1875 6.875 C7.0746875 6.936875 7.0746875 6.936875 9 7 C9 5.02 9 3.04 9 1 C6.03 1 3.06 1 0 1 C0 0.67 0 0.34 0 0 Z " fill="#3279C6" transform="translate(236,128)"/>
<path d="M0 0 C6.93089984 -0.50203701 11.36762431 -0.25301838 17 4 C20.40319292 8.28813233 20.39689716 12.32298317 20.29296875 17.58203125 C20.28872391 18.39621017 20.28447906 19.2103891 20.28010559 20.04924011 C20.26337753 22.63733668 20.22573712 25.22464071 20.1875 27.8125 C20.17244553 29.57225434 20.15875846 31.33202095 20.14648438 33.09179688 C20.11349336 37.39483437 20.0617524 41.69728303 20 46 C15.05 46 10.1 46 5 46 C4.96261719 43.72480469 4.92523438 41.44960937 4.88671875 39.10546875 C4.84050278 36.90118818 4.78926966 34.69707738 4.73754883 32.49291992 C4.70430182 30.96144941 4.67626907 29.42985644 4.65356445 27.89819336 C4.62001282 25.69592113 4.5677009 23.49477088 4.51171875 21.29296875 C4.50532883 20.60849167 4.4989389 19.92401459 4.49235535 19.21879578 C4.40464046 16.380792 4.30779987 14.43843229 2.65161133 12.0793457 C-0.06771489 10.30223687 -1.849774 10.42138706 -5 11 C-7.42422186 13.88509913 -7.42422186 13.88509913 -9 17 C-9.91058531 13.92677456 -10.08886184 11.19902639 -10 8 C-9.34 8 -8.68 8 -8 8 C-7.938125 7.21625 -7.87625 6.4325 -7.8125 5.625 C-7.544375 4.75875 -7.27625 3.8925 -7 3 C-4.4375 1.6875 -4.4375 1.6875 -2 1 C-1.67 1.66 -1.34 2.32 -1 3 C-2.2065625 3.6496875 -2.2065625 3.6496875 -3.4375 4.3125 C-6.27846354 5.80474002 -6.27846354 5.80474002 -7 9 C-3.7 9 -0.4 9 3 9 C3.66 10.32 4.32 11.64 5 13 C5.66 13 6.32 13 7 13 C7 23.56 7 34.12 7 45 C10.96 45 14.92 45 19 45 C18.90555439 40.74956377 18.79927469 36.49962688 18.68261719 32.24975586 C18.64463229 30.8077782 18.60972976 29.36571558 18.578125 27.92358398 C18.40406054 20.07708432 18.09432561 12.61959928 16 5 C13.69 4.34 11.38 3.68 9 3 C9 2.34 9 1.68 9 1 C6.03 1 3.06 1 0 1 C0 0.67 0 0.34 0 0 Z " fill="#246CBB" transform="translate(189,126)"/>
<path d="M0 0 C0.66 0 1.32 0 2 0 C2.99 1.98 3.98 3.96 5 6 C5.66 5.01 6.32 4.02 7 3 C7.67804688 3.13277344 8.35609375 3.26554688 9.0546875 3.40234375 C14.6759649 4.46898503 20.19473852 5.28537263 25.90625 5.65625 C28 6 28 6 31 8 C30.67 9.65 30.34 11.3 30 13 C21.88801961 15.30153862 14.54390771 14.67892946 7.171875 10.5703125 C3.79862717 8.13138152 2.04710783 5.61655717 0 2 C0 1.34 0 0.68 0 0 Z " fill="#1477E2" transform="translate(251,159)"/>
<path d="M0 0 C0.33 0 0.66 0 1 0 C1 3.3 1 6.6 1 10 C0.34 10 -0.32 10 -1 10 C-0.67 10.99 -0.34 11.98 0 13 C-4.95 13 -9.9 13 -15 13 C-15.66 14.65 -16.32 16.3 -17 18 C-19.88861709 19.44430855 -21.79647701 19.37688506 -25 19 C-29.21705211 15.72007058 -29.92248735 14.38756327 -31 9 C-20.77 9 -10.54 9 0 9 C0 6.03 0 3.06 0 0 Z " fill="#C9E6FA" transform="translate(295,144)"/>
<path d="M0 0 C2.9375 1.625 2.9375 1.625 5 4 C5.625 6.9375 5.625 6.9375 5 10 C2.51397551 13.36344489 1.08574477 14.80057749 -3.0625 15.5625 C-6 15 -6 15 -8.375 13.5 C-10.80664499 9.75900771 -10.49174842 7.42573582 -10 3 C-7.82815916 -1.08817098 -4.1986431 -0.50673279 0 0 Z " fill="#3B7DCB" transform="translate(150,109)"/>
<path d="M0 0 C7.68717019 7.50871802 14.6210563 15.67649759 20 25 C17.10190611 25.16250994 14.21295149 25.28107636 11.3125 25.375 C10.08756836 25.45041016 10.08756836 25.45041016 8.83789062 25.52734375 C6.42676953 25.58591349 4.35293515 25.53870989 2 25 C-0.88671875 22.25 -0.88671875 22.25 -3 19 C-3.55945313 18.22914063 -4.11890625 17.45828125 -4.6953125 16.6640625 C-5.65750259 15.2917586 -6.61577125 13.91669771 -7.5703125 12.5390625 C-8.04210937 12.03117188 -8.51390625 11.52328125 -9 11 C-9.99 11 -10.98 11 -12 11 C-12.33 15.62 -12.66 20.24 -13 25 C-13.33 25 -13.66 25 -14 25 C-14.02690844 22.37493198 -14.04679404 19.75013827 -14.0625 17.125 C-14.07087891 16.37863281 -14.07925781 15.63226563 -14.08789062 14.86328125 C-14.11328125 9.2265625 -14.11328125 9.2265625 -13 7 C-7.52173913 7.60869565 -7.52173913 7.60869565 -5.25 9.3125 C-3.90617376 11.12666543 -2.9225481 12.94200809 -2 15 C-1.67 13.68 -1.34 12.36 -1 11 C0.65 11 2.3 11 4 11 C4 12.65 4 14.3 4 16 C3.01 16 2.02 16 1 16 C1.66 18.31 2.32 20.62 3 23 C9.93 23.495 9.93 23.495 17 24 C17 23.34 17 22.68 17 22 C16.34 22 15.68 22 15 22 C14.7525 21.38125 14.505 20.7625 14.25 20.125 C13.19483268 17.8637196 13.19483268 17.8637196 11.0625 17.125 C7.28764597 15.06598871 6.30192511 10.90577532 5 7 C3.02 7 1.04 7 -1 7 C-0.67 4.69 -0.34 2.38 0 0 Z " fill="#2976D5" transform="translate(115,147)"/>
<path d="M0 0 C0.33 0 0.66 0 1 0 C1 3.96 1 7.92 1 12 C-5.27 12 -11.54 12 -18 12 C-18 27.18 -18 42.36 -18 58 C-18.33 58 -18.66 58 -19 58 C-19 42.82 -19 27.64 -19 12 C-19.66 12 -20.32 12 -21 12 C-20.67 12.66 -20.34 13.32 -20 14 C-19.91081223 15.38909304 -19.88240459 16.78236907 -19.88647461 18.17431641 C-19.88658791 19.46542831 -19.88658791 19.46542831 -19.88670349 20.78262329 C-19.89186478 21.71287323 -19.89702606 22.64312317 -19.90234375 23.6015625 C-19.90446617 25.02896255 -19.90446617 25.02896255 -19.90663147 26.48519897 C-19.91223988 29.53183097 -19.92479381 32.57839013 -19.9375 35.625 C-19.94251392 37.68749894 -19.94707701 39.74999903 -19.95117188 41.8125 C-19.96221204 46.87502817 -19.97948233 51.93750173 -20 57 C-20.99 57 -21.98 57 -23 57 C-22 54 -22 54 -21 52 C-21.66 52 -22.32 52 -23 52 C-22.67 38.14 -22.34 24.28 -22 10 C-21.34 9.67 -20.68 9.34 -20 9 C-19.34 9.33 -18.68 9.66 -18 10 C-16.6265365 10.15004973 -15.2471474 10.24838006 -13.8671875 10.31640625 C-13.06152344 10.35830078 -12.25585938 10.40019531 -11.42578125 10.44335938 C-10.58402344 10.48267578 -9.74226563 10.52199219 -8.875 10.5625 C-7.60076172 10.62727539 -7.60076172 10.62727539 -6.30078125 10.69335938 C-4.20071777 10.79954236 -2.10038052 10.90028497 0 11 C0 7.37 0 3.74 0 0 Z " fill="#3685E4" transform="translate(82,114)"/>
<path d="M0 0 C4.95 0 9.9 0 15 0 C15 14.85 15 29.7 15 45 C10.05 45 5.1 45 0 45 C0 30.15 0 15.3 0 0 Z M1 2 C1 15.86 1 29.72 1 44 C4.96 44 8.92 44 13 44 C13 30.14 13 16.28 13 2 C9.04 2 5.08 2 1 2 Z " fill="#347AC7" transform="translate(140,127)"/>
<path d="M0 0 C0 0.99 0 1.98 0 3 C-1.32 3.33 -2.64 3.66 -4 4 C-4 4.66 -4 5.32 -4 6 C-20.5 6 -37 6 -54 6 C-54 7.32 -54 8.64 -54 10 C-45.09 10 -36.18 10 -27 10 C-27 10.33 -27 10.66 -27 11 C-36.57 11 -46.14 11 -56 11 C-56 8.69 -56 6.38 -56 4 C-55.40166855 3.99413376 -54.8033371 3.98826752 -54.18687439 3.98222351 C-47.94076396 3.91812533 -41.69516095 3.8336635 -35.44946289 3.73754883 C-33.12075505 3.70436252 -30.79196798 3.67631112 -28.46313477 3.65356445 C-25.10919543 3.61990331 -21.75597794 3.56758001 -18.40234375 3.51171875 C-17.36665756 3.50532883 -16.33097137 3.4989389 -15.26390076 3.49235535 C-9.41782623 3.37433441 -5.1934376 2.7352317 0 0 Z " fill="#FEEEAB" transform="translate(473,171)"/>
<path d="M0 0 C0 0.66 0 1.32 0 2 C1.1446875 1.938125 1.1446875 1.938125 2.3125 1.875 C5 2 5 2 8 4 C8 5.32 8 6.64 8 8 C8.66 8 9.32 8 10 8 C10 9.65 10 11.3 10 13 C9.443125 12.2575 8.88625 11.515 8.3125 10.75 C3.56864928 5.10866401 -0.66286275 2.78852589 -8 2 C-17.79273499 1.30445918 -28.30680076 0.67562088 -37 6 C-39.62062323 8.92266388 -40.38662434 10.86267952 -40.51171875 14.765625 C-40.54716797 15.65507813 -40.58261719 16.54453125 -40.61914062 17.4609375 C-40.64169922 18.38132812 -40.66425781 19.30171875 -40.6875 20.25 C-40.72166016 21.18585938 -40.75582031 22.12171875 -40.79101562 23.0859375 C-40.87332162 25.39050533 -40.9425263 27.69470119 -41 30 C-41.33 30 -41.66 30 -42 30 C-42 22.08 -42 14.16 -42 6 C-41.01 6 -40.02 6 -39 6 C-39 5.34 -39 4.68 -39 4 C-38.01 4 -37.02 4 -36 4 C-36 3.34 -36 2.68 -36 2 C-34.2984375 1.7834375 -34.2984375 1.7834375 -32.5625 1.5625 C-29.19222799 1.38828522 -29.19222799 1.38828522 -28 0 C-18.84534479 -1.87254311 -9.18793182 -1.44124421 0 0 Z " fill="#E3FCFF" transform="translate(436,88)"/>
<path d="M0 0 C0.66 0.33 1.32 0.66 2 1 C0.02 4.96 -1.96 8.92 -4 13 C-4.66 13 -5.32 13 -6 13 C-6.23314676 33.02677718 -6.23314676 33.02677718 1 51 C3.62102997 52.04510361 3.62102997 52.04510361 6 52 C4.68 52.66 3.36 53.32 2 54 C-3.59012677 49.18627973 -6.46506648 43.1921674 -8 36 C-8.24605809 32.4407325 -8.23113979 28.87943772 -8.25 25.3125 C-8.270625 24.35666016 -8.29125 23.40082031 -8.3125 22.41601562 C-8.35303783 14.98239087 -7.77565424 7.47287997 -2.3125 1.9375 C-1.549375 1.298125 -0.78625 0.65875 0 0 Z " fill="#1A79B1" transform="translate(368,127)"/>
<path d="M0 0 C0.99 0.33 1.98 0.66 3 1 C2.2884375 1.6496875 2.2884375 1.6496875 1.5625 2.3125 C-1.74415988 5.88369268 -1.21428638 10.36582423 -1.31640625 14.94921875 C-1.33718735 15.72183548 -1.35796844 16.49445221 -1.37937927 17.29048157 C-1.44471038 19.7560648 -1.50368315 22.22175361 -1.5625 24.6875 C-1.60570087 26.36003691 -1.64931566 28.03256319 -1.69335938 29.70507812 C-1.8003749 33.8032775 -1.90168857 37.90158296 -2 42 C-2.66 42 -3.32 42 -4 42 C-4.04898437 40.73542969 -4.09796875 39.47085938 -4.1484375 38.16796875 C-4.2234738 36.50779053 -4.29902127 34.84763536 -4.375 33.1875 C-4.42140625 31.93743164 -4.42140625 31.93743164 -4.46875 30.66210938 C-4.50742187 29.85966797 -4.54609375 29.05722656 -4.5859375 28.23046875 C-4.6173584 27.49207764 -4.6487793 26.75368652 -4.68115234 25.99291992 C-4.90834614 23.68650412 -4.90834614 23.68650412 -7 21 C-7.1953125 17.64453125 -7.1953125 17.64453125 -7.125 13.8125 C-7.10695313 12.54019531 -7.08890625 11.26789063 -7.0703125 9.95703125 C-7.04710937 8.98121094 -7.02390625 8.00539062 -7 7 C-6.37609375 6.89816406 -5.7521875 6.79632813 -5.109375 6.69140625 C-2.62492543 6.13811453 -2.62492543 6.13811453 -1.25 2.9375 C-0.8375 1.968125 -0.425 0.99875 0 0 Z " fill="#FEF8D1" transform="translate(397,156)"/>
<path d="M0 0 C0 3.63 0 7.26 0 11 C-4.92127034 11.16682272 -8.50343896 11.24828052 -13 9 C-12.52238806 3.62686567 -12.52238806 3.62686567 -10.4375 1.125 C-6.85660328 -0.52772156 -3.92364165 -0.19618208 0 0 Z " fill="#1C74DD" transform="translate(332,127)"/>
<path d="M0 0 C3.37324783 2.43893098 5.12476717 4.95375533 7.171875 8.5703125 C7.171875 9.2303125 7.171875 9.8903125 7.171875 10.5703125 C6.511875 10.5703125 5.851875 10.5703125 5.171875 10.5703125 C1.171875 5.15854779 1.171875 5.15854779 1.171875 2.5703125 C0.305625 2.2815625 -0.560625 1.9928125 -1.453125 1.6953125 C-4.828125 0.5703125 -4.828125 0.5703125 -7.453125 -0.6171875 C-12.62496078 -1.86225908 -17.58856447 -1.05707824 -22.828125 -0.4296875 C-22.828125 0.2303125 -22.828125 0.8903125 -22.828125 1.5703125 C-23.818125 1.5703125 -24.808125 1.5703125 -25.828125 1.5703125 C-25.828125 2.2303125 -25.828125 2.8903125 -25.828125 3.5703125 C-26.4675 3.6734375 -27.106875 3.7765625 -27.765625 3.8828125 C-28.44625 4.1096875 -29.126875 4.3365625 -29.828125 4.5703125 C-30.158125 5.5603125 -30.488125 6.5503125 -30.828125 7.5703125 C-31.323125 8.0446875 -31.818125 8.5190625 -32.328125 9.0078125 C-35.46457844 12.2749515 -35.08843235 17.00327462 -35.390625 21.3203125 C-35.47441406 22.49078125 -35.55820313 23.66125 -35.64453125 24.8671875 C-35.70511719 25.75921875 -35.76570312 26.65125 -35.828125 27.5703125 C-38.34005927 23.8024111 -38.3051548 20.92415589 -37.828125 16.5703125 C-36.51220933 10.12343152 -33.99057515 4.77433309 -28.828125 0.5703125 C-19.44016239 -4.99658463 -9.51997768 -5.30572005 0 0 Z " fill="#3578CA" transform="translate(286.828125,129.4296875)"/>
<path d="M0 0 C9.57 0 19.14 0 29 0 C29 1.98 29 3.96 29 6 C28.38914047 6.00586624 27.77828094 6.01173248 27.14891052 6.01777649 C20.77304537 6.08186577 14.39767772 6.16632546 8.0222168 6.26245117 C5.64500501 6.29564115 3.26771554 6.32369141 0.89038086 6.34643555 C-2.53305058 6.38008986 -5.95577396 6.43241301 -9.37890625 6.48828125 C-10.9652462 6.49786613 -10.9652462 6.49786613 -12.58363342 6.50764465 C-18.48199147 6.62433831 -22.76416846 7.22884825 -28 10 C-27.67 8.68 -27.34 7.36 -27 6 C-25.35 6 -23.7 6 -22 6 C-22 5.34 -22 4.68 -22 4 C2.255 4.495 2.255 4.495 27 5 C27 3.68 27 2.36 27 1 C18.09 1 9.18 1 0 1 C0 0.67 0 0.34 0 0 Z " fill="#D7F6FD" transform="translate(395,118)"/>
<path d="M0 0 C4.95 0 9.9 0 15 0 C15 1.98 15 3.96 15 6 C14.67 6 14.34 6 14 6 C14 4.35 14 2.7 14 1 C9.71 1 5.42 1 1 1 C1 15.19 1 29.38 1 44 C7.58553975 44.25015173 7.58553975 44.25015173 13 42 C13.15806531 40.07521187 13.251135 38.1450079 13.31640625 36.21484375 C13.35830078 35.04501953 13.40019531 33.87519531 13.44335938 32.66992188 C13.50233398 30.82237305 13.50233398 30.82237305 13.5625 28.9375 C13.60568359 27.70193359 13.64886719 26.46636719 13.69335938 25.19335938 C13.79984198 22.12902665 13.90185424 19.06460927 14 16 C14.33 16 14.66 16 15 16 C15 25.57 15 35.14 15 45 C10.05 45 5.1 45 0 45 C0 30.15 0 15.3 0 0 Z " fill="#3B77BF" transform="translate(164,127)"/>
<path d="M0 0 C0.825 0.04189453 1.65 0.08378906 2.5 0.12695312 C3.34046875 0.14951172 4.1809375 0.17207031 5.046875 0.1953125 C7.11534964 0.25407598 9.18290488 0.34375428 11.25 0.43945312 C10.84048096 0.91552002 10.43096191 1.39158691 10.0090332 1.88208008 C6.7209551 5.70623977 3.46935844 9.5572856 0.25 13.43945312 C-0.68065133 10.83362941 -0.89917407 9.79747089 0.1875 7.18945312 C0.7134375 6.32320312 0.7134375 6.32320312 1.25 5.43945312 C2.24 5.76945313 3.23 6.09945312 4.25 6.43945312 C3.92 5.44945312 3.59 4.45945313 3.25 3.43945312 C4.24 3.43945312 5.23 3.43945312 6.25 3.43945312 C6.25 2.77945313 6.25 2.11945313 6.25 1.43945312 C5.26 1.93445313 5.26 1.93445313 4.25 2.43945312 C2.37620395 2.50979081 0.49998898 2.52375532 -1.375 2.50195312 C-2.37789062 2.49292969 -3.38078125 2.48390625 -4.4140625 2.47460938 C-5.18492188 2.46300781 -5.95578125 2.45140625 -6.75 2.43945312 C-7.04261719 3.03886719 -7.33523437 3.63828125 -7.63671875 4.25585938 C-10.27280417 9.42628657 -13.55823381 13.45727524 -17.75 17.43945312 C-18.513125 18.20257813 -19.27625 18.96570313 -20.0625 19.75195312 C-20.619375 20.30882812 -21.17625 20.86570313 -21.75 21.43945312 C-20.32506007 17.21059914 -18.24615034 14.33523226 -15.375 10.93945312 C-14.60414062 10.02164063 -13.83328125 9.10382813 -13.0390625 8.15820312 C-12.28367187 7.26101562 -11.52828125 6.36382812 -10.75 5.43945312 C-9.90308594 4.04146484 -9.90308594 4.04146484 -9.0390625 2.61523438 C-6.00407385 -0.26955859 -4.06492977 -0.08195423 0 0 Z " fill="#2B74C6" transform="translate(123.75,126.560546875)"/>
<path d="M0 0 C0 5.61 0 11.22 0 17 C-0.99 16.67 -1.98 16.34 -3 16 C-3 12.04 -3 8.08 -3 4 C-20.49 4 -37.98 4 -56 4 C-56 3.67 -56 3.34 -56 3 C-55.39500671 2.99191315 -54.79001343 2.98382629 -54.16668701 2.97549438 C-47.87246604 2.88946741 -41.57856068 2.78996444 -35.28466797 2.68261719 C-32.93543801 2.64432334 -30.58614934 2.60947121 -28.23681641 2.578125 C-24.86078906 2.53248373 -21.48516609 2.47448701 -18.109375 2.4140625 C-17.05820496 2.40251129 -16.00703491 2.39096008 -14.92401123 2.37905884 C-13.45293915 2.3492543 -13.45293915 2.3492543 -11.95214844 2.31884766 C-11.09055115 2.30552399 -10.22895386 2.29220032 -9.34124756 2.2784729 C-5.80069348 1.85735196 -3.63381215 0 0 0 Z " fill="#DFF6FE" transform="translate(86,110)"/>
<path d="M0 0 C4.29 0 8.58 0 13 0 C13.33 2.31 13.66 4.62 14 7 C13.01 7 12.02 7 11 7 C11 5.02 11 3.04 11 1 C7.7 1 4.4 1 1 1 C1 14.86 1 28.72 1 43 C4.96 43 8.92 43 13 43 C13 36.07 13 29.14 13 22 C13.33 22 13.66 22 14 22 C14 29.26 14 36.52 14 44 C9.38 44 4.76 44 0 44 C0 29.48 0 14.96 0 0 Z " fill="#206FC6" transform="translate(303,128)"/>
<path d="M0 0 C2.26921536 -0.13489391 4.5407067 -0.23193995 6.8125 -0.3125 C8.70935547 -0.39951172 8.70935547 -0.39951172 10.64453125 -0.48828125 C14 0 14 0 15.92578125 2.30078125 C17.31191946 5.78376854 17.39883301 8.27755853 17 12 C15.6875 14.875 15.6875 14.875 14 17 C10.98509443 18.00496852 8.95818308 18.10335303 5.8125 18.0625 C4.91144531 18.05347656 4.01039063 18.04445313 3.08203125 18.03515625 C2.39496094 18.02355469 1.70789063 18.01195313 1 18 C0.87625 17.360625 0.7525 16.72125 0.625 16.0625 C0.41875 15.381875 0.2125 14.70125 0 14 C-0.66 13.67 -1.32 13.34 -2 13 C-2 9.7 -2 6.4 -2 3 C-1.34 3 -0.68 3 0 3 C0 2.01 0 1.02 0 0 Z M1.0625 2 C-0.65983409 5.24204065 -0.63194725 8.47103617 0 12 C1.45997987 14.62716577 1.45997987 14.62716577 4 16 C6.95691709 16.75015195 6.95691709 16.75015195 10 16 C13.35694984 13.51877621 14.78441871 12.05634831 15.625 7.9375 C15.21909644 4.86514458 15.21909644 4.86514458 12.9375 2.625 C8.90469659 0.39408748 5.27739549 -0.17542993 1.0625 2 Z " fill="#EDFCFE" transform="translate(140,108)"/>
<path d="M0 0 C0.66 0.33 1.32 0.66 2 1 C2 4.96 2 8.92 2 13 C-8.23 13 -18.46 13 -29 13 C-29 14.98 -29 16.96 -29 19 C-31 17 -31 17 -31.25 14.5 C-31 12 -31 12 -29 10 C-26.11083984 9.86474609 -26.11083984 9.86474609 -22.4609375 10.0234375 C-21.15898437 10.075 -19.85703125 10.1265625 -18.515625 10.1796875 C-17.13540621 10.24456958 -15.75519798 10.30967667 -14.375 10.375 C-12.98701851 10.43323699 -11.5989975 10.49054033 -10.2109375 10.546875 C-6.80679074 10.68871445 -3.40334154 10.84016235 0 11 C0 7.37 0 3.74 0 0 Z " fill="#2472CB" transform="translate(293,140)"/>
<path d="M0 0 C3.1875 0.3125 3.1875 0.3125 5.625 2.0625 C7.1875 4.3125 7.1875 4.3125 6.9375 6.5625 C6.69 7.14 6.4425 7.7175 6.1875 8.3125 C5.8575 6.6625 5.5275 5.0125 5.1875 3.3125 C4.5275 3.3125 3.8675 3.3125 3.1875 3.3125 C3.1875 4.9625 3.1875 6.6125 3.1875 8.3125 C2.5275 8.3125 1.8675 8.3125 1.1875 8.3125 C1.1875 7.6525 1.1875 6.9925 1.1875 6.3125 C-0.70429203 5.6310177 -0.70429203 5.6310177 -2.8125 5.3125 C-5.10289683 7.60289683 -5.12308103 8.17547051 -5.40234375 11.27734375 C-5.47565918 12.08155762 -5.54897461 12.88577148 -5.62451172 13.71435547 C-5.94174806 18.09880893 -6.17846631 22.48359977 -6.375 26.875 C-6.41818359 27.78830078 -6.46136719 28.70160156 -6.50585938 29.64257812 C-6.61061757 31.86577991 -6.71279017 34.08906707 -6.8125 36.3125 C-7.1425 36.3125 -7.4725 36.3125 -7.8125 36.3125 C-7.91191096 32.2924737 -7.98422063 28.27293037 -8.03222656 24.25195312 C-8.05225319 22.88626632 -8.07948332 21.52066431 -8.11425781 20.15527344 C-8.16316432 18.18462898 -8.18341347 16.21334017 -8.203125 14.2421875 C-8.22407227 13.05866699 -8.24501953 11.87514648 -8.26660156 10.65576172 C-7.58844983 5.66296075 -5.30177079 0.58908564 0 0 Z " fill="#D6F0FB" transform="translate(186.8125,135.6875)"/>
<path d="M0 0 C5.61 0 11.22 0 17 0 C17 0.33 17 0.66 17 1 C12.05 1 7.1 1 2 1 C2.01160156 2.29035156 2.02320313 3.58070312 2.03515625 4.91015625 C2.0445412 6.62760271 2.05364064 8.34505075 2.0625 10.0625 C2.07087891 10.91005859 2.07925781 11.75761719 2.08789062 12.63085938 C2.13865405 25.77858663 2.13865405 25.77858663 -0.55859375 28.671875 C-1.17863281 29.02765625 -1.79867188 29.3834375 -2.4375 29.75 C-5.2587886 31.42274731 -6.07620087 32.11430131 -8 35 C-9.32 34.67 -10.64 34.34 -12 34 C-11.278125 33.46375 -10.55625 32.9275 -9.8125 32.375 C-4.80849087 28.14939229 -1.39546409 24.4107648 -0.79467773 17.70996094 C-0.75802002 16.89301758 -0.7213623 16.07607422 -0.68359375 15.234375 C-0.64169922 14.34492188 -0.59980469 13.45546875 -0.55664062 12.5390625 C-0.49766602 11.15847656 -0.49766602 11.15847656 -0.4375 9.75 C-0.39431641 8.81414062 -0.35113281 7.87828125 -0.30664062 6.9140625 C-0.20082061 4.60953778 -0.09993083 2.30478761 0 0 Z " fill="#F2CB4A" transform="translate(452,118)"/>
<path d="M0 0 C8.00067705 0.34190928 8.00067705 0.34190928 11.5625 2.6875 C13.42943017 5.69082245 13.44415891 7.52075524 13 11 C12.01 12.485 12.01 12.485 11 14 C4.67721029 13.67373505 -0.55464391 13.38495108 -6 10 C-5.67 8.35 -5.34 6.7 -5 5 C-4.01 5 -3.02 5 -2 5 C-2.66 6.65 -3.32 8.3 -4 10 C0.95 10 5.9 10 11 10 C8.83333333 4.16666667 8.83333333 4.16666667 6 3 C4.62657169 2.9310528 3.24997898 2.91532292 1.875 2.9375 C0.59625 2.958125 -0.6825 2.97875 -2 3 C-1.34 2.01 -0.68 1.02 0 0 Z " fill="#2273D6" transform="translate(269,134)"/>
<path d="M0 0 C2.875 2.3125 2.875 2.3125 5 5 C5 5.99 5 6.98 5 8 C0.05 8 -4.9 8 -10 8 C-9 3 -9 3 -7.8125 1.1875 C-5.02372887 -0.63962591 -3.26191611 -0.52190658 0 0 Z " fill="#C9EAFC" transform="translate(275,136)"/>
<path d="M0 0 C9.57 0 19.14 0 29 0 C29.0825 2.84625 29.165 5.6925 29.25 8.625 C29.28641602 9.51010254 29.32283203 10.39520508 29.36035156 11.30712891 C29.43718906 16.8134033 28.65695029 19.81482356 25 24 C24.34 24 23.68 24 23 24 C23 24.66 23 25.32 23 26 C19.04 26.495 19.04 26.495 15 27 C15.33 26.34 15.66 25.68 16 25 C17.98 25 19.96 25 22 25 C22 24.01 22 23.02 22 22 C22.99 22 23.98 22 25 22 C25.99 11.605 25.99 11.605 27 1 C18.09 1 9.18 1 0 1 C0 0.67 0 0.34 0 0 Z " fill="#EDC93F" transform="translate(417,182)"/>
<path d="M0 0 C-0.66 0 -1.32 0 -2 0 C-2 0.66 -2 1.32 -2 2 C-0.02 1.67 1.96 1.34 4 1 C4.04241723 3.33294775 4.04092937 5.66702567 4 8 C3.67 8.33 3.34 8.66 3 9 C3 9.33 3 9.66 3 10 C0.36 10 -2.28 10 -5 10 C-6.85776765 6.86501708 -7.20140476 4.62528568 -7 1 C-3.375 -1.125 -3.375 -1.125 0 0 Z " fill="#1477E8" transform="translate(148,112)"/>
<path d="M0 0 C0.99 0.33 1.98 0.66 3 1 C1.7934375 1.8971875 1.7934375 1.8971875 0.5625 2.8125 C-2.22327984 4.80947276 -2.22327984 4.80947276 -3 8 C0.3 8 3.6 8 7 8 C7.66 9.32 8.32 10.64 9 12 C9.66 12 10.32 12 11 12 C10.67 22.89 10.34 33.78 10 45 C9.67 45 9.34 45 9 45 C8.98541748 44.04633545 8.97083496 43.0926709 8.95581055 42.11010742 C8.89782208 38.57066415 8.82059042 35.03185676 8.73754883 31.49291992 C8.70430182 29.96144941 8.67626907 28.42985644 8.65356445 26.89819336 C8.62001282 24.69592113 8.5677009 22.49477088 8.51171875 20.29296875 C8.50532883 19.60849167 8.4989389 18.92401459 8.49235535 18.21879578 C8.40464046 15.380792 8.30779987 13.43843229 6.65161133 11.0793457 C3.93228511 9.30223687 2.150226 9.42138706 -1 10 C-3.42422186 12.88509913 -3.42422186 12.88509913 -5 16 C-5.91058531 12.92677456 -6.08886184 10.19902639 -6 7 C-5.34 7 -4.68 7 -4 7 C-3.896875 6.21625 -3.79375 5.4325 -3.6875 4.625 C-3 2 -3 2 0 0 Z " fill="#4286CE" transform="translate(185,127)"/>
<path d="M0 0 C0.99 0.33 1.98 0.66 3 1 C2.01 1.33 1.02 1.66 0 2 C0 3.32 0 4.64 0 6 C-1.32 6.33 -2.64 6.66 -4 7 C-4 12.61 -4 18.22 -4 24 C4.91 24 13.82 24 23 24 C23 24.33 23 24.66 23 25 C13.43 25 3.86 25 -6 25 C-6.0825 21.968125 -6.165 18.93625 -6.25 15.8125 C-6.28641602 14.86608643 -6.32283203 13.91967285 -6.36035156 12.94458008 C-6.41511005 8.78425999 -6.35090458 6.5662324 -4.109375 2.94921875 C-2 1 -2 1 0 0 Z " fill="#1370A8" transform="translate(401,92)"/>
<path d="M0 0 C4.95 0 9.9 0 15 0 C15 3.96 15 7.92 15 12 C14.67 12 14.34 12 14 12 C14 8.37 14 4.74 14 1 C10.04 1 6.08 1 2 1 C2.020625 2.4025 2.04125 3.805 2.0625 5.25 C2.10829766 8.36424089 1.8723412 11.00519083 1 14 C-0.98 14.33 -2.96 14.66 -5 15 C-5.33 16.32 -5.66 17.64 -6 19 C-4.02 19 -2.04 19 0 19 C0 19.66 0 20.32 0 21 C-2.31 21 -4.62 21 -7 21 C-7 17.7 -7 14.4 -7 11 C-4.69 11 -2.38 11 0 11 C0 7.37 0 3.74 0 0 Z " fill="#3A79C7" transform="translate(221,116)"/>
<path d="M0 0 C0 10.89 0 21.78 0 33 C-0.33 33 -0.66 33 -1 33 C-1 22.44 -1 11.88 -1 1 C-2.98 1 -4.96 1 -7 1 C-7 2.65 -7 4.3 -7 6 C-8.65 6.33 -10.3 6.66 -12 7 C-12 10.96 -12 14.92 -12 19 C-12.33 19 -12.66 19 -13 19 C-13 13.06 -13 7.12 -13 1 C-9 0 -9 0 0 0 Z " fill="#1B70CE" transform="translate(101,111)"/>
<path d="M0 0 C0.66 0 1.32 0 2 0 C2 3.96 2 7.92 2 12 C2.66 12 3.32 12 4 12 C4.55353075 25.81776765 4.55353075 25.81776765 1 31 C0.67 31 0.34 31 0 31 C0 20.77 0 10.54 0 0 Z " fill="#E3F6FD" transform="translate(446,103)"/>
<path d="M0 0 C0.99 0.33 1.98 0.66 3 1 C-0.05440102 4.02302019 -2.56947844 4.34125473 -6.78948975 4.33988953 C-7.90689545 4.31666374 -7.90689545 4.31666374 -9.046875 4.29296875 C-9.81807678 4.28872391 -10.58927856 4.28447906 -11.3838501 4.28010559 C-13.83959315 4.26335383 -16.29450629 4.22570939 -18.75 4.1875 C-20.41795687 4.17244857 -22.08592665 4.15876097 -23.75390625 4.14648438 C-27.83625578 4.11346194 -31.91798732 4.06170484 -36 4 C-36 4.66 -36 5.32 -36 6 C-37.65 6.33 -39.3 6.66 -41 7 C-40.67 6.34 -40.34 5.68 -40 5 C-39.01 5 -38.02 5 -37 5 C-36.67 4.01 -36.34 3.02 -36 2 C-34.9805127 1.97494385 -33.96102539 1.9498877 -32.91064453 1.92407227 C-29.13479646 1.83002996 -25.35913373 1.72980163 -21.58349609 1.62768555 C-19.94812347 1.58432462 -18.31270523 1.54265039 -16.67724609 1.50268555 C-14.32896159 1.44501088 -11.98090696 1.38130871 -9.6328125 1.31640625 C-8.89942657 1.29969376 -8.16604065 1.28298126 -7.41043091 1.26576233 C-3.57797692 1.21362038 -3.57797692 1.21362038 0 0 Z " fill="#FEFBDC" transform="translate(441,149)"/>
<path d="M0 0 C0.66 0 1.32 0 2 0 C2.05849554 3.20825562 2.09376162 6.41637233 2.125 9.625 C2.14175781 10.52863281 2.15851563 11.43226563 2.17578125 12.36328125 C2.21201643 17.32750152 1.96444146 21.34411907 0 26 C-0.33 24.68 -0.66 23.36 -1 22 C-1.99 22 -2.98 22 -4 22 C-4.25086347 18.48791142 -4.21312487 16.40771715 -2.5625 13.25 C-0.46988346 8.8973576 -0.27358365 4.77356302 0 0 Z " fill="#FCFBE8" transform="translate(450,118)"/>
<path d="M0 0 C0 0.66 0 1.32 0 2 C-0.99 2.495 -0.99 2.495 -2 3 C-2 3.66 -2 4.32 -2 5 C-2.99 5 -3.98 5 -5 5 C-5.14695312 5.59167969 -5.29390625 6.18335938 -5.4453125 6.79296875 C-7.13196493 12.73502586 -8.90786002 15.49208135 -14 19 C-14 17.35 -14 15.7 -14 14 C-13.34 14 -12.68 14 -12 14 C-12 13.01 -12 12.02 -12 11 C-10.68 11 -9.36 11 -8 11 C-8.33 10.01 -8.66 9.02 -9 8 C-8.5625 5.8125 -8.5625 5.8125 -8 4 C-8.61875 4.495 -9.2375 4.99 -9.875 5.5 C-12 7 -12 7 -14 7 C-13.34 5.02 -12.68 3.04 -12 1 C-10.37512529 0.83211627 -8.75009558 0.66573213 -7.125 0.5 C-6.22007813 0.4071875 -5.31515625 0.314375 -4.3828125 0.21875 C-2 0 -2 0 0 0 Z " fill="#1675E6" transform="translate(130,128)"/>
<path d="M0 0 C2.80362763 -0.22732116 4.46186517 -0.34081872 6.875 1.1875 C8 3 8 3 7.8125 5.5625 C7 8 7 8 5 10 C1.875 10.125 1.875 10.125 -1 10 C-2.35439668 7.29120665 -2.06501451 4.99066732 -2 2 C-1.34 2 -0.68 2 0 2 C0 1.34 0 0.68 0 0 Z " fill="#FCF3C2" transform="translate(432,188)"/>
<path d="M0 0 C1.485 0.99 1.485 0.99 3 2 C3.2487793 4.88916016 3.2487793 4.88916016 3.07421875 8.5390625 C3.01943359 9.84101563 2.96464844 11.14296875 2.90820312 12.484375 C2.83496465 13.86460084 2.76139261 15.24480902 2.6875 16.625 C2.62424925 18.01295766 2.5623829 19.40097916 2.50195312 20.7890625 C2.34827688 24.19358245 2.18036232 27.59680622 2 31 C2.66 31 3.32 31 4 31 C3.67 32.32 3.34 33.64 3 35 C2.01 35 1.02 35 0 35 C0 23.45 0 11.9 0 0 Z " fill="#C2E0F5" transform="translate(209,137)"/>
<path d="M0 0 C7.68717019 7.50871802 14.6210563 15.67649759 20 25 C14.06 25 8.12 25 2 25 C2 24.67 2 24.34 2 24 C6.95 24 11.9 24 17 24 C17 23.34 17 22.68 17 22 C16.34 22 15.68 22 15 22 C14.7525 21.38125 14.505 20.7625 14.25 20.125 C13.19483268 17.8637196 13.19483268 17.8637196 11.0625 17.125 C7.28764597 15.06598871 6.30192511 10.90577532 5 7 C3.02 7 1.04 7 -1 7 C-0.67 4.69 -0.34 2.38 0 0 Z " fill="#3A7ABD" transform="translate(115,147)"/>
<path d="M0 0 C1.765625 1.5859375 1.765625 1.5859375 3 3 C2 4 2 4 -1.81640625 4.09765625 C-3.39846682 4.09098089 -4.98051159 4.07901875 -6.5625 4.0625 C-7.36880859 4.05798828 -8.17511719 4.05347656 -9.00585938 4.04882812 C-11.00393756 4.03700518 -13.00197783 4.01906914 -15 4 C-15.33 3.01 -15.66 2.02 -16 1 C-10.27670638 -2.16607732 -6.13819349 -2.5456849 0 0 Z " fill="#1277F4" transform="translate(279,167)"/>
<path d="M0 0 C0.99 0.33 1.98 0.66 3 1 C5.36382559 6.81925171 5.26972299 12.47750063 5.1875 18.6875 C5.18685547 19.62400391 5.18621094 20.56050781 5.18554688 21.52539062 C5.15981664 25.53073055 5.11199494 29.12937023 4 33 C3.34 33 2.68 33 2 33 C2.03480469 31.06060547 2.03480469 31.06060547 2.0703125 29.08203125 C2.19262706 19.15544009 1.99514484 9.76195869 0 0 Z " fill="#FEF7C7" transform="translate(478,127)"/>
<path d="M0 0 C0.66 0 1.32 0 2 0 C1.79141357 0.527146 1.58282715 1.05429199 1.36791992 1.59741211 C-0.85827541 7.64878949 -1.52271328 13.14523446 -1.6875 19.5625 C-1.72166016 20.47580078 -1.75582031 21.38910156 -1.79101562 22.33007812 C-1.87248338 24.55298411 -1.93793798 26.7764676 -2 29 C-7.28 29 -12.56 29 -18 29 C-18 28.67 -18 28.34 -18 28 C-13.38 27.67 -8.76 27.34 -4 27 C-4.226875 24.710625 -4.45375 22.42125 -4.6875 20.0625 C-5.21701906 13.65823797 -4.58783421 8.90026201 -2 3 C-1.34 3 -0.68 3 0 3 C0 2.01 0 1.02 0 0 Z " fill="#1473B2" transform="translate(390,153)"/>
<path d="M0 0 C0.99386719 0.02707031 1.98773438 0.05414063 3.01171875 0.08203125 C4.15060547 0.13423828 4.15060547 0.13423828 5.3125 0.1875 C4.56268723 3.52311571 3.72844674 5.68207375 1.3125 8.1875 C-0.0075 8.1875 -1.3275 8.1875 -2.6875 8.1875 C-2.6875 7.5275 -2.6875 6.8675 -2.6875 6.1875 C-5.6575 5.6925 -5.6575 5.6925 -8.6875 5.1875 C-8.6875 3.1875 -8.6875 3.1875 -7.54296875 1.57421875 C-4.966219 -0.35156265 -3.17653179 -0.11211289 0 0 Z " fill="#1876E9" transform="translate(286.6875,158.8125)"/>
<path d="M0 0 C2.5625 0.25 2.5625 0.25 5.5625 2.25 C5.2325 4.23 4.9025 6.21 4.5625 8.25 C1.1875 8.875 1.1875 8.875 -2.4375 9.25 C-4.4375 7.25 -4.4375 7.25 -4.6875 4.75 C-4.3425508 1.30050805 -3.45990757 0.35486231 0 0 Z " fill="#E0F9FE" transform="translate(405.4375,101.75)"/>
<path d="M0 0 C0.33 0.66 0.66 1.32 1 2 C0.06553465 4.03144641 -0.93224776 6.03533587 -2 8 C-1.34 8 -0.68 8 0 8 C-0.33 9.98 -0.66 11.96 -1 14 C-1.33 13.01 -1.66 12.02 -2 11 C-2.66 11 -3.32 11 -4 11 C-3.97679687 12.03640625 -3.95359375 13.0728125 -3.9296875 14.140625 C-3.91092333 15.51040944 -3.89272382 16.8802017 -3.875 18.25 C-3.84986328 19.27287109 -3.84986328 19.27287109 -3.82421875 20.31640625 C-3.78687849 24.16245258 -4.13878271 26.66397731 -6 30 C-6.08797281 26.81267746 -6.14071341 23.62567212 -6.1875 20.4375 C-6.21263672 19.54224609 -6.23777344 18.64699219 -6.26367188 17.72460938 C-6.33490234 11.24263718 -5.73100814 6.13560194 -1.3125 1.0625 C-0.6628125 0.5365625 -0.6628125 0.5365625 0 0 Z " fill="#D2EEF6" transform="translate(394,152)"/>
<path d="M0 0 C-0.15847412 0.69762451 -0.31694824 1.39524902 -0.48022461 2.11401367 C-1.03009555 5.16710168 -1.20951883 8.07604597 -1.31640625 11.17578125 C-1.35830078 12.33271484 -1.40019531 13.48964844 -1.44335938 14.68164062 C-1.48267578 15.87982422 -1.52199219 17.07800781 -1.5625 18.3125 C-1.60568359 19.53001953 -1.64886719 20.74753906 -1.69335938 22.00195312 C-1.79921496 25.0011947 -1.90129726 28.00051591 -2 31 C-2.66 30.67 -3.32 30.34 -4 30 C-5.99960012 29.960008 -8.00047242 29.95653201 -10 30 C-10 29.67 -10 29.34 -10 29 C-8.35 29 -6.7 29 -5 29 C-5.00523682 28.40050537 -5.01047363 27.80101074 -5.01586914 27.18334961 C-5.03681443 24.43474398 -5.04971556 21.68615522 -5.0625 18.9375 C-5.07087891 17.99455078 -5.07925781 17.05160156 -5.08789062 16.08007812 C-5.10573446 10.95889863 -5.08283619 6.01918408 -4 1 C-2 0 -2 0 0 0 Z " fill="#428CDD" transform="translate(320,141)"/>
<path d="M0 0 C0 3 0 3 -1 5 C-1.66 5 -2.32 5 -3 5 C-3 5.66 -3 6.32 -3 7 C-4.59210424 8.25135868 -6.22465243 9.4515234 -7.875 10.625 C-11.38907243 13.33500501 -13.59443263 15.11228135 -14.625 19.5 C-14.810625 21.2325 -14.810625 21.2325 -15 23 C-16.32 22.01 -17.64 21.02 -19 20 C-17.66000502 16.993182 -16.20154709 15.00237391 -13.8125 12.75 C-10.49210479 9.54744763 -7.51530166 6.15636977 -4.578125 2.6015625 C-3 1 -3 1 0 0 Z " fill="#E5F6FC" transform="translate(135,129)"/>
<path d="M0 0 C0.66 0 1.32 0 2 0 C2 3.3 2 6.6 2 10 C4.31 10 6.62 10 9 10 C9 17.92 9 25.84 9 34 C8.67 34 8.34 34 8 34 C7.67 26.74 7.34 19.48 7 12 C4.69 12.33 2.38 12.66 0 13 C-0.99 11.68 -1.98 10.36 -3 9 C-2.34 9 -1.68 9 -1 9 C-0.67 6.03 -0.34 3.06 0 0 Z " fill="#E1FBFD" transform="translate(212,127)"/>
<path d="M0 0 C0.66 0 1.32 0 2 0 C1.98839844 0.77085938 1.97679687 1.54171875 1.96484375 2.3359375 C1.95582031 3.33882812 1.94679688 4.34171875 1.9375 5.375 C1.92589844 6.37273437 1.91429687 7.37046875 1.90234375 8.3984375 C1.81993398 10.98432453 1.81993398 10.98432453 3 13 C1.02 13.33 -0.96 13.66 -3 14 C-3 14.66 -3 15.32 -3 16 C-6.68734758 18.45823172 -9.69699971 19.01242616 -14 20 C-12.75023244 16.34683329 -12.32901247 15.21934164 -9 13 C-5.97670744 12.7389212 -3.04123758 12.91184819 0 13 C0 8.71 0 4.42 0 0 Z " fill="#E7F9FB" transform="translate(333,126)"/>
<path d="M0 0 C0.33 1.32 0.66 2.64 1 4 C-0.134375 3.814375 -1.26875 3.62875 -2.4375 3.4375 C-3.613125 3.293125 -4.78875 3.14875 -6 3 C-7.28322547 4.0595877 -7.28322547 4.0595877 -7.125 6.5 C-7.28322547 8.9404123 -7.28322547 8.9404123 -6 10 C-3.66702567 10.04092937 -1.33294775 10.04241723 1 10 C1.33 8.35 1.66 6.7 2 5 C2.33 5 2.66 5 3 5 C3.25 7.3125 3.25 7.3125 3 10 C0.71537467 12.54823595 -0.64975169 12.96426038 -4.0625 13.3125 C-7 13 -7 13 -10 11 C-10.39507893 6.65413172 -10.45331002 4.67996503 -8 1 C-5.00114236 -0.99923843 -3.38814969 -1.21005346 0 0 Z " fill="#237DB2" transform="translate(409,100)"/>
<path d="M0 0 C0.527146 0.28004883 1.05429199 0.56009766 1.59741211 0.84863281 C7.67750484 3.84333499 12.83482913 4.64140957 19.5625 4.75 C20.47580078 4.77964844 21.38910156 4.80929688 22.33007812 4.83984375 C24.55346923 4.9096885 26.77586468 4.96279745 29 5 C27 7 27 7 24.84521484 7.22705078 C23.97590332 7.21657715 23.1065918 7.20610352 22.2109375 7.1953125 C21.26992188 7.18886719 20.32890625 7.18242187 19.359375 7.17578125 C18.37453125 7.15902344 17.3896875 7.14226562 16.375 7.125 C15.38242187 7.11597656 14.38984375 7.10695312 13.3671875 7.09765625 C10.91121866 7.07404116 8.45572832 7.04110799 6 7 C6 6.34 6 5.68 6 5 C4.35 4.67 2.7 4.34 1 4 C0.67 2.68 0.34 1.36 0 0 Z " fill="#FCEDB2" transform="translate(399,205)"/>
<path d="M0 0 C1.05904289 0.00212242 1.05904289 0.00212242 2.13948059 0.00428772 C4.39120751 0.00987861 6.64283446 0.02242937 8.89453125 0.03515625 C10.4225246 0.04017243 11.95051952 0.04473513 13.47851562 0.04882812 C17.2213926 0.05984505 20.96419498 0.07710338 24.70703125 0.09765625 C24.70703125 0.42765625 24.70703125 0.75765625 24.70703125 1.09765625 C13.35435383 1.89333827 2.0868495 2.22583943 -9.29296875 2.09765625 C-9.62296875 3.08765625 -9.95296875 4.07765625 -10.29296875 5.09765625 C-11.61296875 4.76765625 -12.93296875 4.43765625 -14.29296875 4.09765625 C-9.56866759 0.35079671 -5.88060152 -0.04434256 0 0 Z " fill="#EAFEFF" transform="translate(409.29296875,146.90234375)"/>
<path d="M0 0 C0.66 0 1.32 0 2 0 C2.804375 1.6396875 2.804375 1.6396875 3.625 3.3125 C5.73668429 7.05903664 7.9786876 8.39147504 12 10 C12.33 10.33 12.66 10.66 13 11 C15.85877909 11.23701239 18.69883297 11.42219182 21.5625 11.5625 C22.36880859 11.60568359 23.17511719 11.64886719 24.00585938 11.69335938 C26.00368805 11.79975262 28.0018207 11.90040888 30 12 C25.14427706 14.81180235 20.46916182 14.69449674 15 14 C7.90478595 11.75518652 3.64724913 8.44347346 0 2 C0 1.34 0 0.68 0 0 Z " fill="#3578C7" transform="translate(251,159)"/>
<path d="M0 0 C1.64510941 0.00015915 3.29022379 0.00585551 4.93530273 0.01586914 C6.23164894 0.01799156 6.23164894 0.01799156 7.55418396 0.02015686 C10.32578941 0.025773 13.09731528 0.0383282 15.86889648 0.05102539 C17.74324428 0.05603831 19.61759334 0.06060158 21.49194336 0.06469727 C26.09679192 0.07574767 30.70158069 0.09302309 35.30639648 0.11352539 C35.30639648 0.44352539 35.30639648 0.77352539 35.30639648 1.11352539 C33.89946533 1.13539917 33.89946533 1.13539917 32.46411133 1.15771484 C28.96370269 1.21899257 25.46405199 1.29318471 21.96411133 1.37597656 C20.45314744 1.40910465 18.94206342 1.43717394 17.4309082 1.45996094 C15.25086566 1.4937322 13.0719121 1.54605436 10.89233398 1.60180664 C8.92852783 1.64108276 8.92852783 1.64108276 6.92504883 1.68115234 C3.08445105 2.14004444 0.63357759 3.19253641 -2.69360352 5.11352539 C-3.68360352 5.60852539 -3.68360352 5.60852539 -4.69360352 6.11352539 C-4.73632452 4.44740634 -4.73424184 2.77969654 -4.69360352 1.11352539 C-3.69360352 0.11352539 -3.69360352 0.11352539 0 0 Z " fill="#4892BA" transform="translate(398.693603515625,145.886474609375)"/>
<path d="M0 0 C3.3 0 6.6 0 10 0 C9.67 1.32 9.34 2.64 9 4 C8.34 4 7.68 4 7 4 C7 4.99 7 5.98 7 7 C3.62537285 6.45276317 1.91765 5.9451 -1 4 C-0.67 2.68 -0.34 1.36 0 0 Z " fill="#FBFCFA" transform="translate(269,155)"/>
<path d="M0 0 C0.99 1.32 1.98 2.64 3 4 C-2.38029285 8.56155263 -4.49470882 10.12817349 -11.7578125 10.09765625 C-12.75238968 10.09553383 -12.75238968 10.09553383 -13.76705933 10.09336853 C-15.88641863 10.08776754 -18.00567259 10.075215 -20.125 10.0625 C-21.56119639 10.05748512 -22.99739444 10.05292219 -24.43359375 10.04882812 C-27.95576345 10.03779782 -31.47787145 10.02053259 -35 10 C-35 9.67 -35 9.34 -35 9 C-34.14768799 8.9906543 -33.29537598 8.98130859 -32.41723633 8.97167969 C-29.23916483 8.92753079 -26.06204216 8.86585733 -22.88452148 8.79248047 C-21.51225093 8.76434625 -20.13982059 8.74309414 -18.76733398 8.72900391 C-16.78861506 8.70747269 -14.8102523 8.6587072 -12.83203125 8.609375 C-11.64327393 8.58842773 -10.4545166 8.56748047 -9.22973633 8.54589844 C-5.41233447 7.90067124 -3.7270873 6.69981329 -1 4 C-0.13034494 1.87053397 -0.13034494 1.87053397 0 0 Z " fill="#1974AA" transform="translate(441,136)"/>
<path d="M0 0 C2.79521729 0.22744809 5.58377125 0.48074964 8.375 0.75 C9.1690625 0.811875 9.963125 0.87375 10.78125 0.9375 C12.93300639 1.15632268 14.92444902 1.38920487 17 2 C18.5390625 4.078125 18.5390625 4.078125 19 6 C18.01 5.67 17.02 5.34 16 5 C14.66636297 4.85596652 13.32781954 4.75409577 11.98828125 4.68359375 C11.23095703 4.64169922 10.47363281 4.59980469 9.69335938 4.55664062 C8.51483398 4.49766602 8.51483398 4.49766602 7.3125 4.4375 C6.51521484 4.39431641 5.71792969 4.35113281 4.89648438 4.30664062 C2.93118553 4.20072632 0.96561504 4.09987449 -1 4 C-0.67 2.68 -0.34 1.36 0 0 Z " fill="#FEF7CF" transform="translate(453,114)"/>
<path d="M0 0 C0.79341797 -0.00773437 1.58683594 -0.01546875 2.40429688 -0.0234375 C3.17193359 -0.02085938 3.93957031 -0.01828125 4.73046875 -0.015625 C5.41906982 -0.01336914 6.1076709 -0.01111328 6.81713867 -0.00878906 C8.8125 0.25 8.8125 0.25 12.8125 2.25 C3.2425 2.58 -6.3275 2.91 -16.1875 3.25 C-16.1875 2.92 -16.1875 2.59 -16.1875 2.25 C-10.66491145 0.39193282 -5.80698414 -0.05744749 0 0 Z " fill="#3582B0" transform="translate(419.1875,88.75)"/>
<path d="M0 0 C0.33 0.99 0.66 1.98 1 3 C1.66 3 2.32 3 3 3 C3.09796875 3.71285156 3.1959375 4.42570313 3.296875 5.16015625 C4.24808517 11.25282142 5.22994313 16.04506812 9 21 C11.62102997 22.04510361 11.62102997 22.04510361 14 22 C12.02 22.99 12.02 22.99 10 24 C3.82491971 18.68256975 1.07528156 12.52984418 0.25 4.4375 C0.15100328 2.95929903 0.0618047 1.4802225 0 0 Z " fill="#297CAB" transform="translate(360,157)"/>
<path d="M0 0 C2.64 0 5.28 0 8 0 C8 0.33 8 0.66 8 1 C7.38511719 1.17015625 6.77023437 1.3403125 6.13671875 1.515625 C5.32847656 1.75796875 4.52023437 2.0003125 3.6875 2.25 C2.88699219 2.48203125 2.08648437 2.7140625 1.26171875 2.953125 C-1.5039449 4.23325947 -2.39672705 5.42620649 -4 8 C-4.49651796 10.30746465 -4.49651796 10.30746465 -4.51171875 12.765625 C-4.54716797 13.65507813 -4.58261719 14.54453125 -4.61914062 15.4609375 C-4.64169922 16.38132812 -4.66425781 17.30171875 -4.6875 18.25 C-4.72166016 19.18585938 -4.75582031 20.12171875 -4.79101562 21.0859375 C-4.87332162 23.39050533 -4.9425263 25.69470119 -5 28 C-5.33 28 -5.66 28 -6 28 C-6 20.08 -6 12.16 -6 4 C-5.01 4 -4.02 4 -3 4 C-3 3.34 -3 2.68 -3 2 C-2.01 2 -1.02 2 0 2 C0 1.34 0 0.68 0 0 Z " fill="#C2E9F8" transform="translate(400,90)"/>
<path d="M0 0 C0 3 0 3 -1 6 C-1.495 6.474375 -1.99 6.94875 -2.5 7.4375 C-5.63645344 10.704639 -5.26030735 15.43296212 -5.5625 19.75 C-5.64628906 20.92046875 -5.73007813 22.0909375 -5.81640625 23.296875 C-5.87699219 24.18890625 -5.93757812 25.0809375 -6 26 C-8.50991872 22.23512192 -8.48349937 19.35149436 -8 15 C-6.65769215 8.79182622 -4.35326865 4.58858047 0 0 Z " fill="#4481CD" transform="translate(257,131)"/>
<path d="M0 0 C2.56314499 -0.08132187 5.12368418 -0.14064175 7.6875 -0.1875 C8.40873047 -0.21263672 9.12996094 -0.23777344 9.87304688 -0.26367188 C14.45838636 -0.32648474 17.3914195 0.10220051 21 3 C22.3125 5.6875 22.3125 5.6875 23 8 C20.69 7.67 18.38 7.34 16 7 C15.67 5.35 15.34 3.7 15 2 C10.05 2 5.1 2 0 2 C0 1.34 0 0.68 0 0 Z " fill="#F0C525" transform="translate(454,119)"/>
<path d="M0 0 C1.65 0 3.3 0 5 0 C5.33 0.99 5.66 1.98 6 3 C6.99 3.99 7.98 4.98 9 6 C5.37 6 1.74 6 -2 6 C-1 2 -1 2 0 0 Z " fill="#F8FCF7" transform="translate(270,137)"/>
<path d="M0 0 C4.62 0 9.24 0 14 0 C13.67 1.32 13.34 2.64 13 4 C12.01 3.34 11.02 2.68 10 2 C6.45812169 1.66661404 6.45812169 1.66661404 3 2 C0.75675164 3.81193006 0.75675164 3.81193006 0.8046875 6.3828125 C0.82789063 7.28773437 0.85109375 8.19265625 0.875 9.125 C0.89304688 10.03507812 0.91109375 10.94515625 0.9296875 11.8828125 C0.95289063 12.58148438 0.97609375 13.28015625 1 14 C0.01 13.67 -0.98 13.34 -2 13 C-2 9.7 -2 6.4 -2 3 C-1.34 3 -0.68 3 0 3 C0 2.01 0 1.02 0 0 Z " fill="#CEEBFA" transform="translate(140,108)"/>
<path d="M0 0 C0.33 0 0.66 0 1 0 C1.22297226 2.87453422 1.42878171 5.7486182 1.625 8.625 C1.68945312 9.43324219 1.75390625 10.24148437 1.8203125 11.07421875 C2.13273892 15.87777492 1.92020113 19.47067061 0 24 C-1.98 24.33 -3.96 24.66 -6 25 C-5.360625 24.21625 -4.72125 23.4325 -4.0625 22.625 C-1.55073349 19.42820626 -0.87888014 17.82871134 -0.68359375 13.8671875 C-0.64169922 13.06152344 -0.59980469 12.25585938 -0.55664062 11.42578125 C-0.51732422 10.58402344 -0.47800781 9.74226562 -0.4375 8.875 C-0.37272461 7.60076172 -0.37272461 7.60076172 -0.30664062 6.30078125 C-0.20045764 4.20071777 -0.09971503 2.10038052 0 0 Z " fill="#FEF4C2" transform="translate(446,182)"/>
<path d="M0 0 C0.99 0.33 1.98 0.66 3 1 C3 1.66 3 2.32 3 3 C4.65 3 6.3 3 8 3 C8 3.99 8 4.98 8 6 C6.02 6.99 4.04 7.98 2 9 C1.67 8.67 1.34 8.34 1 8 C-1.52596259 7.76346477 -4.03107207 7.57826308 -6.5625 7.4375 C-7.27341797 7.39431641 -7.98433594 7.35113281 -8.71679688 7.30664062 C-10.47761912 7.20028223 -12.2387832 7.09961154 -14 7 C-14 6.67 -14 6.34 -14 6 C-5.585 5.505 -5.585 5.505 3 5 C2.01 3.35 1.02 1.7 0 0 Z " fill="#E1F6FC" transform="translate(131,166)"/>
<path d="M0 0 C4.95 0 9.9 0 15 0 C13 6 13 6 11 7 C11.33 5.35 11.66 3.7 12 2 C8.37 2 4.74 2 1 2 C0.67 2.99 0.34 3.98 0 5 C-0.66 4.67 -1.32 4.34 -2 4 C-1.34 2.68 -0.68 1.36 0 0 Z " fill="#4481C5" transform="translate(280,157)"/>
<path d="M0 0 C0.99 0.33 1.98 0.66 3 1 C-0.60115489 4.46911255 -3.51596363 4.35100043 -8.390625 4.29296875 C-9.09523865 4.28872391 -9.79985229 4.28447906 -10.52581787 4.28010559 C-12.76760712 4.26336538 -15.00848431 4.22572404 -17.25 4.1875 C-18.77342448 4.17244704 -20.29686311 4.1587597 -21.8203125 4.14648438 C-25.54716941 4.11347791 -29.27349563 4.06172854 -33 4 C-33 3.67 -33 3.34 -33 3 C-31.71367676 2.970271 -31.71367676 2.970271 -30.40136719 2.93994141 C-27.21052358 2.86170479 -24.0200526 2.77500657 -20.82958984 2.68261719 C-19.45044757 2.64440662 -18.07120833 2.60953998 -16.69189453 2.578125 C-14.70583033 2.53230376 -12.72008321 2.47333737 -10.734375 2.4140625 C-9.54038086 2.3826416 -8.34638672 2.3512207 -7.11621094 2.31884766 C-4.13661959 2.01397878 -2.59615211 1.33969486 0 0 Z " fill="#FEF5AF" transform="translate(441,149)"/>
<path d="M0 0 C6.93089984 -0.50203701 11.36762431 -0.25301838 17 4 C19 6.4375 19 6.4375 20 9 C19.6875 11.8125 19.6875 11.8125 19 14 C17.35173889 11.03312999 16.55728913 8.34373475 16 5 C13.69 4.34 11.38 3.68 9 3 C9 2.34 9 1.68 9 1 C6.03 1 3.06 1 0 1 C0 0.67 0 0.34 0 0 Z " fill="#3B7DCA" transform="translate(189,126)"/>
<path d="M0 0 C0 0.99 0 1.98 0 3 C-0.928125 2.67 -1.85625 2.34 -2.8125 2 C-11.19546916 -0.35400548 -19.06241611 0.70737261 -27 4 C-27 3.01 -27 2.02 -27 1 C-18.34648207 -1.76912574 -8.86304649 -2.08640454 0 0 Z " fill="#D1F1FD" transform="translate(286,126)"/>
<path d="M0 0 C3.90156658 3.03455179 6.79575992 5.46906205 9 10 C9 10.66 9 11.32 9 12 C8.01 12 7.02 12 6 12 C3.64276511 9.46815512 3 8.52809907 3 5 C1.35 4.67 -0.3 4.34 -2 4 C-1.34 2.68 -0.68 1.36 0 0 Z " fill="#D7F1FB" transform="translate(104,156)"/>
<path d="M0 0 C0 0.66 0 1.32 0 2 C-3.30994713 3.65497356 -6.99123 3.10084335 -10.625 3.0625 C-11.42679688 3.05798828 -12.22859375 3.05347656 -13.0546875 3.04882812 C-15.03649006 3.03703168 -17.01825433 3.01909605 -19 3 C-19.33 2.34 -19.66 1.68 -20 1 C-17.22922802 0.83225597 -14.45839073 0.66576064 -11.6875 0.5 C-10.90181641 0.45230469 -10.11613281 0.40460938 -9.30664062 0.35546875 C-8.54931641 0.31035156 -7.79199219 0.26523438 -7.01171875 0.21875 C-6.31522217 0.17685547 -5.61872559 0.13496094 -4.90112305 0.09179688 C-3.26903034 0.01299029 -1.63399421 0 0 0 Z " fill="#1E71DB" transform="translate(51,122)"/>
<path d="M0 0 C11.21487603 -0.19008264 11.21487603 -0.19008264 16 3 C16 4.32 16 5.64 16 7 C16.66 7 17.32 7 18 7 C18 8.65 18 10.3 18 12 C17.443125 11.2575 16.88625 10.515 16.3125 9.75 C11.41969394 3.93152793 7.326394 2.21308485 0 1 C0 0.67 0 0.34 0 0 Z " fill="#C3E9F6" transform="translate(428,89)"/>
<path d="M0 0 C5.22064994 7.8309749 4.23449235 17.95901726 4 27 C3.67 27 3.34 27 3 27 C2.86722656 25.71222656 2.73445313 24.42445313 2.59765625 23.09765625 C2.41950101 21.41924638 2.24110308 19.74086227 2.0625 18.0625 C1.93198242 16.78729492 1.93198242 16.78729492 1.79882812 15.48632812 C1.71181641 14.67744141 1.62480469 13.86855469 1.53515625 13.03515625 C1.456604 12.2862915 1.37805176 11.53742676 1.29711914 10.76586914 C1.1719262 8.97859987 1.1719262 8.97859987 0 8 C-0.14115161 5.32941149 -0.04247107 2.67567762 0 0 Z " fill="#EBC849" transform="translate(477,127)"/>
<path d="M0 0 C-1.375 2.0625 -1.375 2.0625 -4 4 C-7.40060685 4.05863115 -10.65559323 3.58718592 -14 3 C-11.87033995 0.87033995 -10.95931796 0.52375338 -8.125 -0.1875 C-7.44695312 -0.36667969 -6.76890625 -0.54585937 -6.0703125 -0.73046875 C-3.77181444 -1.02970718 -2.19449036 -0.69377386 0 0 Z " fill="#FEFAD3" transform="translate(440,209)"/>
<path d="M0 0 C2.11826152 3.17739229 3.83497239 6.45478527 5.5859375 9.84375 C7.12113066 12.18470752 8.68238352 13.46149715 11 15 C8.23723823 14.47731534 5.6739124 13.89130413 3 13 C3 12.01 3 11.02 3 10 C2.34 10 1.68 10 1 10 C0.67 6.7 0.34 3.4 0 0 Z " fill="#C3E9F7" transform="translate(361,167)"/>
<path d="M0 0 C0.33 0 0.66 0 1 0 C1 5.94 1 11.88 1 18 C-4.28 18 -9.56 18 -15 18 C-15 17.67 -15 17.34 -15 17 C-14.15695312 16.93941406 -13.31390625 16.87882812 -12.4453125 16.81640625 C-11.34960938 16.73261719 -10.25390625 16.64882812 -9.125 16.5625 C-8.03445313 16.48128906 -6.94390625 16.40007812 -5.8203125 16.31640625 C-3.05271029 16.16998297 -3.05271029 16.16998297 -1 15 C-0.68758629 12.45058627 -0.48696579 9.99638487 -0.375 7.4375 C-0.31699219 6.37112305 -0.31699219 6.37112305 -0.2578125 5.28320312 C-0.16328217 3.52257575 -0.08054183 1.76132272 0 0 Z " fill="#3A83AF" transform="translate(387,164)"/>
<path d="M0 0 C-0.66 0 -1.32 0 -2 0 C-2 0.66 -2 1.32 -2 2 C-0.02 1.67 1.96 1.34 4 1 C4 2.65 4 4.3 4 6 C3.34 6 2.68 6 2 6 C2 5.34 2 4.68 2 4 C-0.31 4 -2.62 4 -5 4 C-5.33 2.68 -5.66 1.36 -6 0 C-3 -1 -3 -1 0 0 Z " fill="#1277F0" transform="translate(148,112)"/>
<path d="M0 0 C5.28 0 10.56 0 16 0 C15.34 1.32 14.68 2.64 14 4 C13.34 3.67 12.68 3.34 12 3 C9.9625237 2.77141886 7.91959697 2.58975722 5.875 2.4375 C4.23144531 2.31181641 4.23144531 2.31181641 2.5546875 2.18359375 C1.71164063 2.12300781 0.86859375 2.06242188 0 2 C0 1.34 0 0.68 0 0 Z " fill="#E3FCFE" transform="translate(86,172)"/>
<path d="M0 0 C0.99 0 1.98 0 3 0 C3 1.32 3 2.64 3 4 C3.99 4 4.98 4 6 4 C6.66 3.34 7.32 2.68 8 2 C8 2.66 8 3.32 8 4 C8.66 4 9.32 4 10 4 C10 4.66 10 5.32 10 6 C6.7 6 3.4 6 0 6 C-0.38218767 4.34385343 -0.71395102 2.67542976 -1 1 C-0.67 0.67 -0.34 0.34 0 0 Z " fill="#1E73DF" transform="translate(122,165)"/>
<path d="M0 0 C3.78125 0.7578125 3.78125 0.7578125 5.75 2.9375 C7 5 7 5 7 7 C7.99 6.34 8.98 5.68 10 5 C12.1875 5.375 12.1875 5.375 14 6 C14 6.66 14 7.32 14 8 C12.68 7.67 11.36 7.34 10 7 C9.67 8.32 9.34 9.64 9 11 C5.40521193 7.67149253 2.77635232 4.01028669 0 0 Z " fill="#E7F6FC" transform="translate(122,155)"/>
<path d="M0 0 C9.84375 9.5625 9.84375 9.5625 10.3125 13.875 C10.1578125 14.926875 10.1578125 14.926875 10 16 C9.34 15.01 8.68 14.02 8 13 C7.46375 12.319375 6.9275 11.63875 6.375 10.9375 C5 9 5 9 5 7 C3.02 7 1.04 7 -1 7 C-0.67 4.69 -0.34 2.38 0 0 Z " fill="#2B75C9" transform="translate(115,147)"/>
<path d="M0 0 C-0.33 0.66 -0.66 1.32 -1 2 C-1.94875 1.95875 -2.8975 1.9175 -3.875 1.875 C-7.10244856 1.65026182 -7.10244856 1.65026182 -9 4 C-9.16681109 7.08347826 -9.16681109 7.08347826 -9 10 C-10.32 9.67 -11.64 9.34 -13 9 C-12.52238806 3.62686567 -12.52238806 3.62686567 -10.4375 1.125 C-6.85660328 -0.52772156 -3.92364165 -0.19618208 0 0 Z " fill="#2576CD" transform="translate(332,127)"/>
<path d="M0 0 C0.66 0.33 1.32 0.66 2 1 C0.63629701 3.99220268 -0.94908083 6.29026529 -3.125 8.75 C-3.93324219 9.67039063 -3.93324219 9.67039063 -4.7578125 10.609375 C-5.16773437 11.06828125 -5.57765625 11.5271875 -6 12 C-7.1171875 8.28125 -7.1171875 8.28125 -6.0625 5.75 C-5.5365625 4.88375 -5.5365625 4.88375 -5 4 C-4.01 4.33 -3.02 4.66 -2 5 C-2.33 4.01 -2.66 3.02 -3 2 C-2.01 2 -1.02 2 0 2 C0 1.34 0 0.68 0 0 Z " fill="#2F78CE" transform="translate(130,128)"/>
<path d="M0 0 C0.89203125 0.28746094 1.7840625 0.57492188 2.703125 0.87109375 C3.37859375 1.09925781 4.0540625 1.32742187 4.75 1.5625 C4.75 1.8925 4.75 2.2225 4.75 2.5625 C-0.2 2.5625 -5.15 2.5625 -10.25 2.5625 C-9.92 1.5725 -9.59 0.5825 -9.25 -0.4375 C-5.86201059 -1.95599075 -3.4175025 -1.12417845 0 0 Z " fill="#E7FBFE" transform="translate(174.25,124.4375)"/>
<path d="M0 0 C1.65 0 3.3 0 5 0 C5.33 0.66 5.66 1.32 6 2 C6.99 2.66 7.98 3.32 9 4 C8.01 4.99 7.02 5.98 6 7 C5.01 6.67 4.02 6.34 3 6 C3.66 6 4.32 6 5 6 C5 5.34 5 4.68 5 4 C3.35 3.67 1.7 3.34 0 3 C0 2.01 0 1.02 0 0 Z " fill="#F7C01E" transform="translate(466,166)"/>
<path d="M0 0 C1.98 0.99 1.98 0.99 4 2 C3.67 2.99 3.34 3.98 3 5 C3.5775 5.28875 4.155 5.5775 4.75 5.875 C6.83333333 6.91666667 8.91666667 7.95833333 11 9 C6.90114782 9.47661072 5.44069635 9.3448928 2.125 6.75 C0 4 0 4 0 0 Z " fill="#DBF4FE" transform="translate(265,154)"/>
<path d="M0 0 C1.65 0.33 3.3 0.66 5 1 C4.67 1.99 4.34 2.98 4 4 C3.01 4 2.02 4 1 4 C0.67 8.62 0.34 13.24 0 18 C-0.33 18 -0.66 18 -1 18 C-1.02690844 15.37493198 -1.04679404 12.75013827 -1.0625 10.125 C-1.07087891 9.37863281 -1.07925781 8.63226563 -1.08789062 7.86328125 C-1.11328125 2.2265625 -1.11328125 2.2265625 0 0 Z " fill="#5794D3" transform="translate(102,154)"/>
<path d="M0 0 C0.33 0 0.66 0 1 0 C1 3.63 1 7.26 1 11 C-0.98 11 -2.96 11 -5 11 C-4.67 9.68 -4.34 8.36 -4 7 C-3.01 7 -2.02 7 -1 7 C-0.67 4.69 -0.34 2.38 0 0 Z " fill="#EAFBFE" transform="translate(220,116)"/>
<path d="M0 0 C2.5625 0.25 2.5625 0.25 5.5625 2.25 C5.2325 4.23 4.9025 6.21 4.5625 8.25 C4.2325 8.25 3.9025 8.25 3.5625 8.25 C3.5625 6.6 3.5625 4.95 3.5625 3.25 C1.2525 3.25 -1.0575 3.25 -3.4375 3.25 C-3.7675 4.57 -4.0975 5.89 -4.4375 7.25 C-4.5625 4.875 -4.5625 4.875 -4.4375 2.25 C-2.4375 0.25 -2.4375 0.25 0 0 Z " fill="#B8E7F6" transform="translate(405.4375,101.75)"/>
<path d="M0 0 C3.4877577 0.22746246 6.54887462 1.14400968 9.875 2.1875 C9.875 2.5175 9.875 2.8475 9.875 3.1875 C4.265 3.1875 -1.345 3.1875 -7.125 3.1875 C-5.805 2.5275 -4.485 1.8675 -3.125 1.1875 C-2.125 0.1875 -2.125 0.1875 0 0 Z " fill="#1A75E3" transform="translate(271.125,167.8125)"/>
<path d="M0 0 C0.66 0.33 1.32 0.66 2 1 C1.34 2.65 0.68 4.3 0 6 C4.95 6 9.9 6 15 6 C15 6.33 15 6.66 15 7 C9.72 7 4.44 7 -1 7 C-1.33 5.35 -1.66 3.7 -2 2 C-1.34 1.34 -0.68 0.68 0 0 Z " fill="#377CD0" transform="translate(265,138)"/>
<path d="M0 0 C1.65 0.33 3.3 0.66 5 1 C4.02433888 2.16959987 3.044375 3.33561177 2.0625 4.5 C1.51722656 5.1496875 0.97195312 5.799375 0.41015625 6.46875 C-0.05519531 6.9740625 -0.52054687 7.479375 -1 8 C-1.33 8 -1.66 8 -2 8 C-2 6.35 -2 4.7 -2 3 C-1.34 3 -0.68 3 0 3 C0 2.01 0 1.02 0 0 Z " fill="#2E77D6" transform="translate(118,139)"/>
<path d="M0 0 C1.16144531 0.11085938 2.32289063 0.22171875 3.51953125 0.3359375 C4.39996094 0.43132812 5.28039062 0.52671875 6.1875 0.625 C6.1875 1.285 6.1875 1.945 6.1875 2.625 C5.37925781 2.61339844 4.57101563 2.60179688 3.73828125 2.58984375 C2.13533203 2.57630859 2.13533203 2.57630859 0.5 2.5625 C-0.55574219 2.55089844 -1.61148438 2.53929688 -2.69921875 2.52734375 C-5.53660262 2.61634575 -8.0563919 2.97560162 -10.8125 3.625 C-11.1425 2.965 -11.4725 2.305 -11.8125 1.625 C-7.6285335 -0.43940531 -4.60614129 -0.4652668 0 0 Z " fill="#D7F4FD" transform="translate(194.8125,124.375)"/>
<path d="M0 0 C2.88242777 2.44777596 2.98623004 2.85541545 3.375 6.9375 C3.25787287 10.47083523 2.56417383 12.43582617 0 15 C-0.66 14.34 -1.32 13.68 -2 13 C-1.34 12.01 -0.68 11.02 0 10 C0.24150773 7.48415109 0.24150773 7.48415109 0.125 4.8125 C0.10695312 3.91144531 0.08890625 3.01039062 0.0703125 2.08203125 C0.04710937 1.39496094 0.02390625 0.70789063 0 0 Z " fill="#E2F7FD" transform="translate(154,109)"/>
<path d="M0 0 C0.99 0 1.98 0 3 0 C4.125 4.75 4.125 4.75 3 7 C2.01 7 1.02 7 0 7 C-0.38133299 5.0085944 -0.71325582 3.00720923 -1 1 C-0.67 0.67 -0.34 0.34 0 0 Z " fill="#1477F4" transform="translate(323,130)"/>
<path d="M0 0 C2.64 0.66 5.28 1.32 8 2 C8 3.32 8 4.64 8 6 C7.34 6 6.68 6 6 6 C6 5.34 6 4.68 6 4 C4.35 4 2.7 4 1 4 C0.67 2.68 0.34 1.36 0 0 Z " fill="#FAC205" transform="translate(436,184)"/>
<path d="M0 0 C1.65 0 3.3 0 5 0 C5 1.65 5 3.3 5 5 C3.35 4.67 1.7 4.34 0 4 C0 2.68 0 1.36 0 0 Z " fill="#1976DB" transform="translate(114,158)"/>
<path d="M0 0 C0 2.31 0 4.62 0 7 C-1.9375 6.6875 -1.9375 6.6875 -4 6 C-4.33 5.01 -4.66 4.02 -5 3 C-2.25 0 -2.25 0 0 0 Z " fill="#1379F2" transform="translate(122,132)"/>
<path d="M0 0 C0.99 0.33 1.98 0.66 3 1 C2.01 1.33 1.02 1.66 0 2 C0 3.32 0 4.64 0 6 C-0.99 6.33 -1.98 6.66 -3 7 C-3.66 6.67 -4.32 6.34 -5 6 C-3.63016497 2.83884224 -3.0109362 2.0072908 0 0 Z " fill="#2780B0" transform="translate(401,92)"/>
<path d="M0 0 C0.66 0 1.32 0 2 0 C2.66 1.65 3.32 3.3 4 5 C0.5980513 7.09350689 -2.05272412 7.17942163 -6 7 C-2.25 5 -2.25 5 0 5 C0 3.35 0 1.7 0 0 Z " fill="#F9BE14" transform="translate(432,202)"/>
<path d="M0 0 C0.61875 0.78375 1.2375 1.5675 1.875 2.375 C3.89858661 4.96837647 3.89858661 4.96837647 6 7 C5.67 7.66 5.34 8.32 5 9 C3.0625 8.625 3.0625 8.625 1 8 C-0.35439668 5.29120665 -0.06501451 2.99066732 0 0 Z " fill="#3580D0" transform="translate(264,156)"/>
<path d="M0 0 C2.97 0 5.94 0 9 0 C8.67 0.99 8.34 1.98 8 3 C5.61435923 2.42415568 3.33317216 1.77772405 1 1 C1 2.98 1 4.96 1 7 C0.67 7 0.34 7 0 7 C0 4.69 0 2.38 0 0 Z " fill="#E5FEFE" transform="translate(237,137)"/>
<path d="M0 0 C0.66 0 1.32 0 2 0 C3.125 6.75 3.125 6.75 2 9 C1.34 9 0.68 9 0 9 C0 6.03 0 3.06 0 0 Z " fill="#D5EFFD" transform="translate(245,163)"/>
<path d="M0 0 C0.66 0 1.32 0 2 0 C1.67 2.64 1.34 5.28 1 8 C-0.32 7.01 -1.64 6.02 -3 5 C-1.125 1.125 -1.125 1.125 0 0 Z " fill="#CEECFB" transform="translate(119,144)"/>
<path d="M0 0 C2.31 0 4.62 0 7 0 C7 0.66 7 1.32 7 2 C4.36 2.66 1.72 3.32 -1 4 C-0.67 2.68 -0.34 1.36 0 0 Z " fill="#0F7BDD" transform="translate(271,130)"/>
<path d="M0 0 C5.94 0 11.88 0 18 0 C17.01 0.99 16.02 1.98 15 3 C14.67 2.67 14.34 2.34 14 2 C11.65012738 1.76472227 9.29443961 1.58613583 6.9375 1.4375 C5.64714844 1.35371094 4.35679688 1.26992187 3.02734375 1.18359375 C1.52880859 1.09271484 1.52880859 1.09271484 0 1 C0 0.67 0 0.34 0 0 Z " fill="#5482B3" transform="translate(117,127)"/>
<path d="M0 0 C3.375 -0.125 3.375 -0.125 7 0 C7.66 0.66 8.32 1.32 9 2 C5.7 2.66 2.4 3.32 -1 4 C-0.67 2.68 -0.34 1.36 0 0 Z " fill="#D6F1FC" transform="translate(324,124)"/>
<path d="M0 0 C3.28788824 3.11016455 5.83735988 6.01618925 8 10 C7.01 10 6.02 10 5 10 C4.731875 9.38125 4.46375 8.7625 4.1875 8.125 C3.04443152 5.7004767 3.04443152 5.7004767 0 4 C0 2.68 0 1.36 0 0 Z " fill="#4386CE" transform="translate(125,159)"/>
<path d="M0 0 C0.66 0.66 1.32 1.32 2 2 C3.98821313 2.39764263 5.98944339 2.73775349 8 3 C8 3.99 8 4.98 8 6 C5.36 5.67 2.72 5.34 0 5 C0 3.35 0 1.7 0 0 Z " fill="#1C76D8" transform="translate(141,113)"/>
<path d="M0 0 C0.66 0 1.32 0 2 0 C2.33 2.64 2.66 5.28 3 8 C2.34 7.67 1.68 7.34 1 7 C1 6.34 1 5.68 1 5 C0.01 4.67 -0.98 4.34 -2 4 C-1.34 2.68 -0.68 1.36 0 0 Z " fill="#F3C324" transform="translate(428,190)"/>
<path d="M0 0 C1.0326802 2.78823655 1.04509293 3.8677274 0.0625 6.75 C-0.288125 7.4925 -0.63875 8.235 -1 9 C-2.32 8.67 -3.64 8.34 -5 8 C-4.54625 7.608125 -4.0925 7.21625 -3.625 6.8125 C-1.72357081 4.69167513 -0.93795972 2.66957765 0 0 Z " fill="#FEF2C3" transform="translate(479,162)"/>
<path d="M0 0 C0.66 0.33 1.32 0.66 2 1 C2 2.32 2 3.64 2 5 C2.99 5 3.98 5 5 5 C5 5.66 5 6.32 5 7 C3.35 6.67 1.7 6.34 0 6 C-0.38218767 4.34385343 -0.71395102 2.67542976 -1 1 C-0.67 0.67 -0.34 0.34 0 0 Z " fill="#1077F5" transform="translate(260,157)"/>
<path d="M0 0 C-3.96 0 -7.92 0 -12 0 C-6.81914224 -3.45390517 -5.14316905 -3.85737679 0 0 Z " fill="#FBFCEF" transform="translate(188,125)"/>
<path d="M0 0 C1.98 0.495 1.98 0.495 4 1 C3.67 2.32 3.34 3.64 3 5 C1.68 4.67 0.36 4.34 -1 4 C-0.67 2.68 -0.34 1.36 0 0 Z " fill="#FCFBF6" transform="translate(404,104)"/>
<path d="M0 0 C0.33 0.66 0.66 1.32 1 2 C-0.47169811 5.73584906 -0.47169811 5.73584906 -3 7 C-3.66 7.99 -4.32 8.98 -5 10 C-4.49701212 5.59885603 -2.91227269 3.28804981 0 0 Z " fill="#C1E9F8" transform="translate(394,152)"/>
<path d="M0 0 C-1.98 0.33 -3.96 0.66 -6 1 C-6.33 1.99 -6.66 2.98 -7 4 C-8.32 3.67 -9.64 3.34 -11 3 C-7.18178484 -0.02823961 -4.81391924 -1.49397494 0 0 Z " fill="#CCEEF5" transform="translate(406,148)"/>
<path d="M0 0 C4.455 1.98 4.455 1.98 9 4 C9 4.33 9 4.66 9 5 C6.36 4.67 3.72 4.34 1 4 C0.67 2.68 0.34 1.36 0 0 Z " fill="#FDEA9E" transform="translate(399,205)"/>
<path d="M0 0 C0.66 0.33 1.32 0.66 2 1 C0.02 3.97 0.02 3.97 -2 7 C-3.32 6.67 -4.64 6.34 -6 6 C-5.195625 5.38125 -4.39125 4.7625 -3.5625 4.125 C-0.96125481 2.25835959 -0.96125481 2.25835959 0 0 Z " fill="#F2CF54" transform="translate(446,146)"/>
<path d="M0 0 C0.66 0.33 1.32 0.66 2 1 C-0.46153846 5.8 -0.46153846 5.8 -3.1875 6.8125 C-3.785625 6.874375 -4.38375 6.93625 -5 7 C-3.70700306 4.11562221 -2.34058637 2.12780579 0 0 Z " fill="#2E7DAE" transform="translate(368,127)"/>
<path d="M0 0 C1.65 0 3.3 0 5 0 C4.67 2.64 4.34 5.28 4 8 C3.34 7.67 2.68 7.34 2 7 C1.61781233 5.34385343 1.28604898 3.67542976 1 2 C0.67 1.34 0.34 0.68 0 0 Z " fill="#F2C525" transform="translate(437,188)"/>
<path d="M0 0 C2.43929746 1.92576115 4.80090595 3.80090595 7 6 C4.23723823 5.47731534 1.6739124 4.89130413 -1 4 C-0.67 2.68 -0.34 1.36 0 0 Z " fill="#D4F2F9" transform="translate(365,176)"/>
<path d="M0 0 C0.33 0 0.66 0 1 0 C1.1875 2.375 1.1875 2.375 1 5 C0.01 5.66 -0.98 6.32 -2 7 C-2.66 6.34 -3.32 5.68 -4 5 C-2.69254251 3.31295807 -1.35827971 1.64639965 0 0 Z " fill="#E2F4FB" transform="translate(292,163)"/>
<path d="M0 0 C0.99 0.33 1.98 0.66 3 1 C2.54625 1.5775 2.0925 2.155 1.625 2.75 C0.15886484 4.7800333 -0.94857784 6.73539843 -2 9 C-2.125 5.625 -2.125 5.625 -2 2 C-1.34 1.34 -0.68 0.68 0 0 Z " fill="#D3EFFB" transform="translate(363,129)"/>
</svg>
