<?xml version="1.0" encoding="UTF-8"?>
<svg version="1.1" xmlns="http://www.w3.org/2000/svg" width="225" height="180">
<path d="M0 0 C74.25 0 148.5 0 225 0 C225 59.4 225 118.8 225 180 C150.75 180 76.5 180 0 180 C0 120.6 0 61.2 0 0 Z " fill="#7850B2" transform="translate(0,0)"/>
<path d="M0 0 C0.83169205 -0.00953201 1.66338409 -0.01906403 2.52027893 -0.02888489 C3.8733036 -0.02751778 3.8733036 -0.02751778 5.25366211 -0.02612305 C6.18391708 -0.03040817 7.11417206 -0.0346933 8.07261658 -0.03910828 C10.04726345 -0.04486099 12.02193152 -0.04534494 13.99658203 -0.04101562 C16.99476267 -0.03787971 19.99193345 -0.06121869 22.98999023 -0.08666992 C24.91121296 -0.08894546 26.83243831 -0.08964523 28.75366211 -0.08862305 C29.64150894 -0.09783279 30.52935577 -0.10704254 31.44410706 -0.11653137 C40.38011121 -0.05133661 49.05836109 2.38823859 55.96850586 8.2746582 C60.6421448 14.20078599 62.6443736 19.6678331 61.96850586 27.2746582 C60.84623898 34.35357235 57.61873695 38.17058853 52.32006836 42.84106445 C49.61925445 44.48757393 48.07527544 44.57655277 44.96850586 44.2746582 C44.96850586 44.9346582 44.96850586 45.5946582 44.96850586 46.2746582 C46.04100586 46.4190332 47.11350586 46.5634082 48.21850586 46.7121582 C50.88513535 47.11215263 53.38250315 47.55057744 55.96850586 48.2746582 C55.96850586 48.9346582 55.96850586 49.5946582 55.96850586 50.2746582 C56.52538086 50.4809082 57.08225586 50.6871582 57.65600586 50.8996582 C61.74331166 53.32994814 64.47312468 56.78851466 65.96850586 61.2746582 C67.42251343 78.68593877 67.42251343 78.68593877 61.79663086 85.48168945 C53.63797003 93.48345296 45.32320398 96.58779708 33.87341309 96.66584778 C32.45095276 96.65203316 32.45095276 96.65203316 30.99975586 96.63793945 C29.49656799 96.63868721 29.49656799 96.63868721 27.9630127 96.63945007 C25.8655395 96.63712696 23.76806258 96.62750392 21.6706543 96.61083984 C18.44937573 96.58701673 15.22891401 96.59032071 12.00756836 96.59692383 C9.96329257 96.59135373 7.91902026 96.58424808 5.87475586 96.57543945 C4.91025513 96.57635086 3.94575439 96.57726227 2.95202637 96.57820129 C2.06349976 96.56866928 1.17497314 96.55913727 0.25952148 96.54931641 C-0.9143512 96.54240532 -0.9143512 96.54240532 -2.11193848 96.53535461 C-4.03149414 96.2746582 -4.03149414 96.2746582 -6.03149414 94.2746582 C-6.23028062 91.36313611 -6.30415703 88.54670787 -6.2902832 85.6340332 C-6.29378784 84.73962524 -6.29729248 83.84521729 -6.30090332 82.92370605 C-6.30973008 79.9572786 -6.30386815 76.99108823 -6.29711914 74.0246582 C-6.29846552 71.96964471 -6.30040582 69.91463154 -6.30291748 67.85961914 C-6.30587003 63.54871595 -6.3015669 59.23789554 -6.29223633 54.92700195 C-6.28084175 49.39167696 -6.28740052 43.8565459 -6.29938126 38.32122803 C-6.30659633 34.07656382 -6.30431355 29.83194585 -6.29912567 25.58728027 C-6.2977882 23.54585752 -6.29944029 21.50443061 -6.30408478 19.4630127 C-6.30914421 16.61365584 -6.301448 13.76461633 -6.2902832 10.9152832 C-6.29433167 10.0653479 -6.29838013 9.2154126 -6.30255127 8.33972168 C-6.26160926 2.72101593 -6.01138428 0.03782149 0 0 Z " fill="#FAF8FA" transform="translate(86.031494140625,41.725341796875)"/>
<path d="M0 0 C13.2 0 26.4 0 40 0 C37.38206433 2.61793567 34.72627157 4.8439765 31.81640625 7.109375 C25.10529278 14.09470601 25.41294548 20.80938479 25.375 30.125 C25.20573087 46.44254424 24.66577549 65.21188274 13.67578125 78.4453125 C9.55900246 82.26460844 5.58384937 84 0 84 C0 56.28 0 28.56 0 0 Z " fill="#FCFBFC" transform="translate(0,0)"/>
<path d="M0 0 C6.90672436 1.15112073 11.55838475 3.55543937 16 9 C22.90654873 20.1583928 24.8996139 33.21752665 25.17578125 46.15234375 C25.19962891 47.25900391 25.22347656 48.36566406 25.24804688 49.50585938 C25.29093871 51.78952457 25.32223105 54.07343773 25.34179688 56.35742188 C25.52010098 63.48543945 26.56047307 68.75266322 30 75 C30.50140503 76.07689087 30.50140503 76.07689087 31.01293945 77.17553711 C32.29955806 79.5536971 33.53122731 79.98344654 36 81 C37.33333333 81.66666667 38.66666667 82.33333333 40 83 C40 83.33 40 83.66 40 84 C26.8 84 13.6 84 0 84 C0 56.28 0 28.56 0 0 Z " fill="#FCFBFC" transform="translate(0,96)"/>
<path d="M0 0 C0 27.72 0 55.44 0 84 C-13.2 84 -26.4 84 -40 84 C-37 81 -37 81 -35.01171875 80.08984375 C-32.40861095 78.67961642 -31.39746832 77.04385143 -29.8125 74.5625 C-29.30332031 73.78003906 -28.79414063 72.99757813 -28.26953125 72.19140625 C-26.12478563 68.48924535 -25.85186645 65.49470278 -25.75390625 61.29296875 C-25.72264648 60.15553223 -25.69138672 59.0180957 -25.65917969 57.84619141 C-25.62727539 56.63882324 -25.59537109 55.43145508 -25.5625 54.1875 C-24.32358127 17.01506045 -24.32358127 17.01506045 -12.30078125 5.3515625 C-8.16612618 1.65897747 -5.79608846 0 0 0 Z " fill="#FBFBFB" transform="translate(225,96)"/>
<path d="M0 0 C13.2 0 26.4 0 40 0 C40 27.72 40 55.44 40 84 C32.25495409 82.89356487 30.03640252 81.46620492 25 76 C14.86780049 61.92750069 14.67940274 42.58774901 14.609375 25.98242188 C14.47389281 19.05401346 14.02654058 14.68688699 10 9 C10 8.34 10 7.68 10 7 C9.46375 6.7525 8.9275 6.505 8.375 6.25 C5.42838581 4.69915043 2.72082434 2.91694442 0 1 C0 0.67 0 0.34 0 0 Z " fill="#FCFBFC" transform="translate(185,0)"/>
<path d="M0 0 C3.898125 -0.061875 7.79625 -0.12375 11.8125 -0.1875 C13.01753174 -0.21481201 14.22256348 -0.24212402 15.46411133 -0.27026367 C23.94850455 -0.33462851 33.22351599 -0.08227492 39.6875 6.0625 C42.40849254 9.77437421 42.69510181 13.12062013 42.38671875 17.63671875 C41.58807113 22.51734308 40.06276928 25.1304615 36.25 28.25 C28.42586646 32.46299498 21.29225303 32.24787004 12.5625 32.125 C8.416875 32.08375 4.27125 32.0425 0 32 C0 21.44 0 10.88 0 0 Z " fill="#7A56B0" transform="translate(95,94)"/>
<path d="M0 0 C5.9090625 -0.12375 5.9090625 -0.12375 11.9375 -0.25 C13.16073975 -0.28641602 14.38397949 -0.32283203 15.64428711 -0.36035156 C22.57132971 -0.43006614 28.04713694 0.28540666 34 4 C37.12578036 7.12578036 37.26312383 10.1737289 37.5 14.4375 C37.35205358 18.66535361 36.91272171 21.75622333 33.72460938 24.8659668 C26.78235132 29.43091423 18.37285723 29.39405749 10.375 29.1875 C5.239375 29.0946875 5.239375 29.0946875 0 29 C0 19.43 0 9.86 0 0 Z " fill="#7851B1" transform="translate(95,54)"/>
<path d="M0 0 C6.93 0 13.86 0 21 0 C21 0.33 21 0.66 21 1 C14.4 1 7.8 1 1 1 C1 8.26 1 15.52 1 23 C16.345 22.505 16.345 22.505 32 22 C32 23.65 32 25.3 32 27 C31.2886792 26.96447021 30.5773584 26.92894043 29.84448242 26.89233398 C26.62574412 26.73485426 23.40666103 26.58607666 20.1875 26.4375 C19.06794922 26.38142578 17.94839844 26.32535156 16.79492188 26.26757812 C15.72177734 26.21923828 14.64863281 26.17089844 13.54296875 26.12109375 C12.55321045 26.0739624 11.56345215 26.02683105 10.54370117 25.97827148 C7.87518209 25.8704322 7.87518209 25.8704322 5 27 C4.01 26.67 3.02 26.34 2 26 C1.67 26.99 1.34 27.98 1 29 C16.345 28.505 16.345 28.505 32 28 C28.36693942 30.42204038 26.68180977 30.23302891 22.36328125 30.1953125 C20.60818237 30.18781982 20.60818237 30.18781982 18.81762695 30.18017578 C17.33093506 30.16196777 15.84424316 30.14375977 14.3125 30.125 C9.589375 30.08375 4.86625 30.0425 0 30 C0 20.1 0 10.2 0 0 Z " fill="#7250A2" transform="translate(96,95)"/>
<path d="M0 0 C5.9090625 -0.12375 5.9090625 -0.12375 11.9375 -0.25 C13.16073975 -0.28641602 14.38397949 -0.32283203 15.64428711 -0.36035156 C22.679105 -0.4311508 27.86842256 0.48150789 34 4 C34 4.99 34 5.98 34 7 C33.505 6.01 33.505 6.01 33 5 C31.34608154 4.60828247 29.67654729 4.27942455 28 4 C27.01 3.67 26.02 3.34 25 3 C23.22833025 2.85164052 21.45232388 2.75229982 19.67578125 2.68359375 C18.74934814 2.64548584 17.82291504 2.60737793 16.8684082 2.56811523 C15.6949585 2.52501221 14.52150879 2.48190918 13.3125 2.4375 C7.7128125 2.2209375 7.7128125 2.2209375 2 2 C2 10.25 2 18.5 2 27 C10.91 26.67 19.82 26.34 29 26 C26.12330392 28.87669608 23.3888624 28.93905624 19.4128418 29.11352539 C18.51734619 29.10828857 17.62185059 29.10305176 16.69921875 29.09765625 C15.81838623 29.09515869 14.93755371 29.09266113 14.0300293 29.09008789 C12.92699463 29.08098389 11.82395996 29.07187988 10.6875 29.0625 C5.3971875 29.0315625 5.3971875 29.0315625 0 29 C0 19.43 0 9.86 0 0 Z " fill="#8067A3" transform="translate(95,54)"/>
<path d="M0 0 C1 2 1 2 0.3125 4.75 C-1.10420907 8.25804152 -2.65263404 11.03127247 -5 14 C-5.680625 14.144375 -6.36125 14.28875 -7.0625 14.4375 C-7.701875 14.623125 -8.34125 14.80875 -9 15 C-10.79271391 18.48797488 -10.79271391 18.48797488 -12 22 C-7.545 23.98 -7.545 23.98 -3 26 C-3 26.66 -3 27.32 -3 28 C-2.34 28 -1.68 28 -1 28 C-1.33 28.66 -1.66 29.32 -2 30 C-5.38928559 30 -6.20729197 29.41233384 -8.9375 27.5625 C-11.83992021 25.59959154 -13.4614545 24.88463638 -17 24 C-17 20.04 -17 16.08 -17 12 C-15.14375 11.319375 -15.14375 11.319375 -13.25 10.625 C-12.51652344 10.34398438 -11.78304688 10.06296875 -11.02734375 9.7734375 C-9.63156362 9.24094335 -8.22565339 8.73450973 -6.8125 8.25 C-3.7861834 6.16288511 -1.98880371 3.04841225 0 0 Z " fill="#7A5AAA" transform="translate(17,72)"/>
<path d="M0 0 C3.59049657 5.38574485 4.24342861 10.77929011 4.30859375 17.1484375 C4.33375456 18.49740014 4.35915257 19.84635837 4.38476562 21.1953125 C4.4134058 23.28384233 4.43747563 25.3722959 4.45629883 27.4609375 C4.54160284 35.41014637 4.62829797 42.66298642 8 50 C11.02884844 51.68036511 11.02884844 51.68036511 14 52 C13.505 54.475 13.505 54.475 13 57 C14.32 57.33 15.64 57.66 17 58 C15.3125 58.8125 15.3125 58.8125 13 59 C10.5 56.875 10.5 56.875 8 54 C7.278125 53.195625 6.55625 52.39125 5.8125 51.5625 C1.26314732 45.13065656 1.65521608 38.20942201 1.5 30.625 C1.24723091 21.53102849 0.67089666 12.67624447 -0.6953125 3.68359375 C-0.79585937 2.79800781 -0.89640625 1.91242188 -1 1 C-0.67 0.67 -0.34 0.34 0 0 Z " fill="#74599C" transform="translate(23,119)"/>
<path d="M0 0 C0.33 0 0.66 0 1 0 C0.95560785 4.98110533 0.88552788 9.96097175 0.79248047 14.94140625 C0.76439963 16.63271174 0.74312146 18.32414532 0.72900391 20.015625 C0.70739392 22.45899425 0.66065666 24.90084425 0.609375 27.34375 C0.60814636 28.08991577 0.60691772 28.83608154 0.60565186 29.6048584 C0.45657787 35.04918053 -0.85232401 39.49489398 -4 44 C-4.99 44.66 -5.98 45.32 -7 46 C-6.690625 45.2575 -6.38125 44.515 -6.0625 43.75 C-5.5365625 42.38875 -5.5365625 42.38875 -5 41 C-4.5978125 39.9790625 -4.5978125 39.9790625 -4.1875 38.9375 C-4.0946875 37.9784375 -4.0946875 37.9784375 -4 37 C-4.7425 36.18789062 -4.7425 36.18789062 -5.5 35.359375 C-7.61612789 32.03088218 -7.16757555 29.08203946 -6.8125 25.3125 C-6.76802734 24.62349609 -6.72355469 23.93449219 -6.67773438 23.22460938 C-6.53830731 21.4740251 -6.27818569 19.73395442 -6 18 C-5.34 17.67 -4.68 17.34 -4 17 C-4 22.28 -4 27.56 -4 33 C-3.34 33 -2.68 33 -2 33 C-1.96241577 31.55379272 -1.96241577 31.55379272 -1.92407227 30.07836914 C-1.83014694 26.51312158 -1.72989061 22.94807567 -1.62768555 19.38305664 C-1.58428015 17.83785711 -1.54260929 16.29260786 -1.50268555 14.74731445 C-1.44511801 12.53060904 -1.38138576 10.3141552 -1.31640625 8.09765625 C-1.29969376 7.4028566 -1.28298126 6.70805695 -1.26576233 5.99220276 C-1.11387171 1.11387171 -1.11387171 1.11387171 0 0 Z " fill="#6F4F9E" transform="translate(200,127)"/>
<path d="M0 0 C3.66605678 3.42165299 5.77779896 5.85175817 6.30297852 10.92919922 C6.32803467 12.04311035 6.35309082 13.15702148 6.37890625 14.3046875 C6.41306641 15.52800781 6.44722656 16.75132813 6.48242188 18.01171875 C6.50884766 19.28660156 6.53527344 20.56148437 6.5625 21.875 C6.62270393 24.39331776 6.68638536 26.9115553 6.75390625 29.4296875 C6.77783447 30.54585449 6.8017627 31.66202148 6.82641602 32.81201172 C6.99691354 35.94331507 7.44678285 38.91629605 8 42 C8.11196073 44.67810075 8.04625299 47.31732686 8 50 C5.02646699 47.54360316 4.54265074 45.76938732 4 42 C3.89819553 39.4095056 3.83958152 36.8406058 3.82421875 34.25 C3.80103177 32.73956922 3.7769149 31.22915249 3.75195312 29.71875 C3.7168072 27.35537113 3.68745761 24.99251515 3.67407227 22.62890625 C3.65856854 20.33530913 3.61836828 18.04320151 3.57421875 15.75 C3.57612717 15.0477832 3.57803558 14.34556641 3.58000183 13.62207031 C3.45862982 8.73368746 2.13117959 6.62764984 -1 3 C-0.67 2.01 -0.34 1.02 0 0 Z " fill="#7155A0" transform="translate(194,8)"/>
<path d="M0 0 C0.33 0 0.66 0 1 0 C1.91643975 12.43538248 2.68158857 24.70559815 0 37 C-0.66 37 -1.32 37 -2 37 C-2.06058594 37.56847656 -2.12117188 38.13695312 -2.18359375 38.72265625 C-2.44693972 41.14949062 -2.72325758 43.57466014 -3 46 C-3.0721875 46.69996094 -3.144375 47.39992187 -3.21875 48.12109375 C-3.40921636 49.75706376 -3.69647307 51.38118972 -4 53 C-4.99 53.495 -4.99 53.495 -6 54 C-6.66 53.34 -7.32 52.68 -8 52 C-7.65066406 50.94941406 -7.30132813 49.89882812 -6.94140625 48.81640625 C-6.48131832 47.39858426 -6.02170861 45.98060703 -5.5625 44.5625 C-5.33240234 43.87478516 -5.10230469 43.18707031 -4.86523438 42.47851562 C-1.53802903 32.11113664 -1.72561095 21.4199237 -1.39453125 10.62304688 C-1.35714844 9.54216797 -1.31976562 8.46128906 -1.28125 7.34765625 C-1.25095703 6.36804932 -1.22066406 5.38844238 -1.18945312 4.37915039 C-1 2 -1 2 0 0 Z " fill="#745A9D" transform="translate(26,18)"/>
<path d="M0 0 C0.928125 0.2784375 0.928125 0.2784375 1.875 0.5625 C4.04160178 1.23686176 4.04160178 1.23686176 6 0 C7.8918457 -0.03759766 7.8918457 -0.03759766 10.17578125 0.0859375 C11.00400391 0.12976563 11.83222656 0.17359375 12.68554688 0.21875 C13.98588867 0.29609375 13.98588867 0.29609375 15.3125 0.375 C16.59543945 0.44074219 16.59543945 0.44074219 17.90429688 0.5078125 C22.01890529 0.73728718 25.98064292 1.02209457 30 2 C26.51153178 4.14503684 23.75594122 4.23354662 19.703125 4.1953125 C17.89521484 4.18564453 17.89521484 4.18564453 16.05078125 4.17578125 C14.16939453 4.15064453 14.16939453 4.15064453 12.25 4.125 C10.98027344 4.11597656 9.71054688 4.10695313 8.40234375 4.09765625 C5.26803907 4.07409005 2.13411459 4.04118832 -1 4 C-0.67 2.68 -0.34 1.36 0 0 Z " fill="#7553B8" transform="translate(98,120)"/>
<path d="M0 0 C0.350625 0.598125 0.70125 1.19625 1.0625 1.8125 C3.64287528 4.72582693 6.40156286 5.62605128 10 7 C10.66 7.33 11.32 7.66 12 8 C11.67 8.66 11.34 9.32 11 10 C11.66 10.33 12.32 10.66 13 11 C16.44089373 16.44286827 18.91833331 21.44047632 18 28 C17.36815319 29.35018215 16.70725438 30.68774489 16 32 C15.89042969 31.13117188 15.78085938 30.26234375 15.66796875 29.3671875 C14.31049891 19.50069943 12.77917809 14.22334247 5 8 C5 7.34 5 6.68 5 6 C4.113125 5.855625 3.22625 5.71125 2.3125 5.5625 C-0.47117646 5.08980022 -3.23483757 4.56929815 -6 4 C-6 3.34 -6 2.68 -6 2 C-4.02 1.34 -2.04 0.68 0 0 Z " fill="#7C669D" transform="translate(137,84)"/>
<path d="M0 0 C5.33310969 -0.50791521 7.86120581 0.65374087 12 4 C13.75178527 5.93983002 15.36033246 7.96149441 17 10 C17.99 10.66 18.98 11.32 20 12 C20.2208564 14.95064148 20.28060989 17.68368231 20.1875 20.625 C20.16719727 21.82769531 20.16719727 21.82769531 20.14648438 23.0546875 C20.11109051 25.03674378 20.05728234 27.01845551 20 29 C17.42742943 26.42742943 17.5991863 24.94897999 17.1875 21.375 C16.27143517 15.65984924 15.19179389 11.15486178 11 7 C7.46877882 4.68232526 3.83127697 2.77137849 0 1 C0 0.67 0 0.34 0 0 Z " fill="#74589D" transform="translate(130,43)"/>
<path d="M0 0 C2.31 0.33 4.62 0.66 7 1 C7.20625 1.721875 7.4125 2.44375 7.625 3.1875 C9.45248163 6.9255306 11.70438806 8.49246917 15 11 C14.67 11.66 14.34 12.32 14 13 C13.77532169 14.53668865 13.59203195 16.07968054 13.4375 17.625 C13.35371094 18.44226563 13.26992187 19.25953125 13.18359375 20.1015625 C13.09271484 21.04128906 13.09271484 21.04128906 13 22 C12.67 22 12.34 22 12 22 C11.96261719 21.40832031 11.92523438 20.81664063 11.88671875 20.20703125 C11.3923469 13.56052884 11.3923469 13.56052884 8 8 C3.26646722 5.45692821 -1.7080843 4.55124122 -7 4 C-6.67 3.34 -6.34 2.68 -6 2 C-2.9375 1.375 -2.9375 1.375 0 1 C0 0.67 0 0.34 0 0 Z " fill="#FAF1FB" transform="translate(120,50)"/>
<path d="M0 0 C2.4059834 2.4059834 3.00651586 4.44077654 4.1875 7.625 C7.99296301 16.90498875 12.77225179 22.11463233 22 26 C18.52176885 27.15941038 16.54104422 26.70820884 13 26 C13 25.34 13 24.68 13 24 C12.01 23.67 11.02 23.34 10 23 C10 22.34 10 21.68 10 21 C8.68 20.34 7.36 19.68 6 19 C6 18.01 6 17.02 6 16 C5.34 16 4.68 16 4 16 C3.32320342 14.274773 2.65898 12.54461061 2 10.8125 C1.443125 9.36810547 1.443125 9.36810547 0.875 7.89453125 C0.02363228 5.07817642 -0.17072647 2.91835561 0 0 Z " fill="#765C9E" transform="translate(202,59)"/>
<path d="M0 0 C0 0.99 0 1.98 0 3 C1.39195915 5.7839183 3.15575779 5.97898997 6 7 C6 10 6 10 4.75 11.625 C2.82584484 13.1368362 1.39010582 13.58791279 -1 14 C-1 13.01 -1 12.02 -1 11 C-1.99 10.34 -2.98 9.68 -4 9 C-4.75 6.4375 -4.75 6.4375 -5 4 C-4.67 3.67 -4.34 3.34 -4 3 C-4.99 2.34 -5.98 1.68 -7 1 C-4.53721199 -0.231394 -2.7204945 -0.07159196 0 0 Z " fill="#F4F1F4" transform="translate(135,122)"/>
<path d="M0 0 C1.76949095 -0.10815225 3.54087487 -0.18566083 5.3125 -0.25 C6.29863281 -0.29640625 7.28476563 -0.3428125 8.30078125 -0.390625 C11 0 11 0 12.85546875 2.015625 C13.23316406 2.67046875 13.61085937 3.3253125 14 4 C13.34 4 12.68 4 12 4 C12.66 5.65 13.32 7.3 14 9 C12.68 9 11.36 9 10 9 C10 8.34 10 7.68 10 7 C9.46375 6.7525 8.9275 6.505 8.375 6.25 C5.42838581 4.69915043 2.72082434 2.91694442 0 1 C0 0.67 0 0.34 0 0 Z " fill="#F5EEF7" transform="translate(185,0)"/>
<path d="M0 0 C1.59780727 0.04237323 3.19533944 0.09604882 4.79248047 0.15869141 C5.63310028 0.18371735 6.47372009 0.20874329 7.33981323 0.23452759 C10.03016855 0.31683536 12.71980144 0.41338226 15.40966797 0.51025391 C17.23125284 0.56848251 19.05286754 0.62578602 20.87451172 0.68212891 C25.34498085 0.82243005 29.81485323 0.97550491 34.28466797 1.13525391 C34.28466797 1.46525391 34.28466797 1.79525391 34.28466797 2.13525391 C26.36466797 2.46525391 18.44466797 2.79525391 10.28466797 3.13525391 C10.28466797 3.46525391 10.28466797 3.79525391 10.28466797 4.13525391 C5.00466797 4.13525391 -0.27533203 4.13525391 -5.71533203 4.13525391 C-5.71533203 0.08733552 -3.61417304 0.13157129 0 0 Z " fill="#7F52BB" transform="translate(85.71533203125,139.86474609375)"/>
<path d="M0 0 C4.45595815 6.68393723 4.25364533 13.20745184 4 21 C3.67 19.68 3.34 18.36 3 17 C2.34 17 1.68 17 1 17 C0.63917123 14.35491639 0.28604648 11.70920453 -0.0625 9.0625 C-0.16626953 8.30775391 -0.27003906 7.55300781 -0.37695312 6.77539062 C-0.62665638 4.85525872 -0.81790281 2.92771856 -1 1 C-0.67 0.67 -0.34 0.34 0 0 Z " fill="#795DA3" transform="translate(23,119)"/>
<path d="M0 0 C3.63 0 7.26 0 11 0 C8.76718268 2.23281732 6.85658836 3.91143831 4.3125 5.6875 C3.37857422 6.34298828 3.37857422 6.34298828 2.42578125 7.01171875 C1.95527344 7.33785156 1.48476563 7.66398438 1 8 C0.67 6.35 0.34 4.7 0 3 C0.66 2.67 1.32 2.34 2 2 C1.34 1.34 0.68 0.68 0 0 Z " fill="#F5EEF6" transform="translate(29,0)"/>
<path d="M0 0 C0.66 0 1.32 0 2 0 C2 1.65 2 3.3 2 5 C0.35 5 -1.3 5 -3 5 C-3.33 5.99 -3.66 6.98 -4 8 C-6.6352539 9.42446157 -8.19404974 10.16845087 -11.16796875 9.546875 C-11.77253906 9.36640625 -12.37710938 9.1859375 -13 9 C-12.31292969 8.60167969 -11.62585938 8.20335937 -10.91796875 7.79296875 C-10.01691406 7.26316406 -9.11585938 6.73335937 -8.1875 6.1875 C-7.29417969 5.66542969 -6.40085938 5.14335937 -5.48046875 4.60546875 C-3.01198722 3.13059348 -3.01198722 3.13059348 -1.30078125 1.30078125 C-0.87152344 0.87152344 -0.44226563 0.44226563 0 0 Z " fill="#785B9D" transform="translate(147,127)"/>
<path d="M0 0 C3.94472555 1.97236278 5.4309269 7.0569018 7 11 C7.51326283 15.54604223 7.1284958 18.05074273 5 22 C4.89042969 21.13117188 4.78085938 20.26234375 4.66796875 19.3671875 C3.83905056 13.34236752 3.08750699 8.33296662 0 3 C0 2.01 0 1.02 0 0 Z " fill="#71579C" transform="translate(148,94)"/>
<path d="M0 0 C1.258125 0.12375 2.51625 0.2475 3.8125 0.375 C4.87404297 0.47941406 4.87404297 0.47941406 5.95703125 0.5859375 C8 1 8 1 11 3 C11 3.66 11 4.32 11 5 C11.66 5 12.32 5 13 5 C12.67 5.66 12.34 6.32 12 7 C8.38862487 7 7.25267809 6.07469918 4.3125 4.0625 C3.50425781 3.51722656 2.69601563 2.97195312 1.86328125 2.41015625 C1.24839844 1.94480469 0.63351563 1.47945313 0 1 C0 0.67 0 0.34 0 0 Z " fill="#7E60A8" transform="translate(3,95)"/>
<path d="M0 0 C4.21422242 2.88341534 5.76075855 5.04303419 7 10 C6.34 10 5.68 10 5 10 C4.34 8.35 3.68 6.7 3 5 C2.34 5 1.68 5 1 5 C0.67 5.66 0.34 6.32 0 7 C-0.99 6.01 -1.98 5.02 -3 4 C-2.67 3.01 -2.34 2.02 -2 1 C-1.34 0.67 -0.68 0.34 0 0 Z " fill="#F6F2F6" transform="translate(139,48)"/>
<path d="M0 0 C0.99 0 1.98 0 3 0 C3.75 2.75 3.75 2.75 4 6 C2.0625 8.375 2.0625 8.375 0 10 C-0.66 9.34 -1.32 8.68 -2 8 C-1.69347955 5.0574037 -1.32728846 2.65457692 0 0 Z " fill="#8263B2" transform="translate(27,12)"/>
<path d="M0 0 C2.36557373 2.13300328 3.62967528 3.95949399 4.75 6.9375 C5.01296875 7.60652344 5.2759375 8.27554688 5.546875 8.96484375 C6.07046274 11.31647491 5.74954377 12.73617523 5 15 C2.02931839 10.6147081 0.54058233 6.01508715 -1 1 C-0.67 0.67 -0.34 0.34 0 0 Z " fill="#EDDEF7" transform="translate(16,107)"/>
<path d="M0 0 C4.43458973 1.3937282 6.87378374 3.60582235 10 7 C9 9 9 9 7 10 C6.814375 9.4225 6.62875 8.845 6.4375 8.25 C4.29448878 4.89572157 1.51177437 3.82092004 -2 2 C-1.34 1.34 -0.68 0.68 0 0 Z " fill="#F4EAFA" transform="translate(6,98)"/>
<path d="M0 0 C0.66 0 1.32 0 2 0 C2.08142927 1.7492214 2.13938541 3.49954542 2.1875 5.25 C2.22230469 6.22453125 2.25710937 7.1990625 2.29296875 8.203125 C1.96075202 11.37468742 1.11327721 12.67040307 -1 15 C-1.66 14.67 -2.32 14.34 -3 14 C-2.67 12.35 -2.34 10.7 -2 9 C-1.34 9 -0.68 9 0 9 C0 6.03 0 3.06 0 0 Z " fill="#6E5298" transform="translate(130,63)"/>
<path d="M0 0 C0.33 0 0.66 0 1 0 C2.10496095 8.55143693 2.85853514 14.63858312 -2 22 C-2.66 21.67 -3.32 21.34 -4 21 C-2.125 15.125 -2.125 15.125 -1 14 C-0.76472227 11.65012738 -0.58613583 9.29443961 -0.4375 6.9375 C-0.35371094 5.64714844 -0.26992187 4.35679688 -0.18359375 3.02734375 C-0.12300781 2.02832031 -0.06242188 1.02929688 0 0 Z " fill="#8E77B4" transform="translate(152,106)"/>
<path d="M0 0 C1.30170877 3.9051263 0.95800834 7.026348 0 11 C-1.4375 12.8125 -1.4375 12.8125 -3 14 C-3.66 14.99 -4.32 15.98 -5 17 C-4.35083537 10.99522721 -2.14204997 5.599219 0 0 Z " fill="#EDE0F6" transform="translate(207,109)"/>
<path d="M0 0 C-0.886875 0.53625 -1.77375 1.0725 -2.6875 1.625 C-5.1565906 3.24771203 -6.91449068 4.93780617 -8.75 7.25 C-9.4925 8.1575 -10.235 9.065 -11 10 C-11.66 10 -12.32 10 -13 10 C-12.25 5.25 -12.25 5.25 -10 3 C-3.66666667 -1.22222222 -3.66666667 -1.22222222 0 0 Z " fill="#6B5192" transform="translate(220,97)"/>
<path d="M0 0 C5.28557366 -0.50338797 7.90950339 0.65323004 12 4 C13.375 6.25 13.375 6.25 14 8 C9.33333333 5.66666667 4.66666667 3.33333333 0 1 C0 0.67 0 0.34 0 0 Z " fill="#7D64A6" transform="translate(130,43)"/>
<path d="M0 0 C0.66 0.33 1.32 0.66 2 1 C1.72510809 5.03174806 1.46508424 6.56894631 -1.5625 9.375 C-2.366875 9.91125 -3.17125 10.4475 -4 11 C-4.66 10.67 -5.32 10.34 -6 10 C-5.01 8.68 -4.02 7.36 -3 6 C-2.67 6.33 -2.34 6.66 -2 7 C-2.061875 5.824375 -2.061875 5.824375 -2.125 4.625 C-2 2 -2 2 0 0 Z " fill="#694F9B" transform="translate(134,112)"/>
<path d="M0 0 C0.33 0 0.66 0 1 0 C0.88655624 2.1464753 0.75893655 4.29220592 0.625 6.4375 C0.55539063 7.63246094 0.48578125 8.82742187 0.4140625 10.05859375 C0.27742188 11.02925781 0.14078125 11.99992187 0 13 C-0.99 13.495 -0.99 13.495 -2 14 C-2.66 13.34 -3.32 12.68 -4 12 C-2.68 8.04 -1.36 4.08 0 0 Z " fill="#7E63A3" transform="translate(22,58)"/>
<path d="M0 0 C0.99 0 1.98 0 3 0 C2.67 1.32 2.34 2.64 2 4 C2.66 4 3.32 4 4 4 C3.67 5.98 3.34 7.96 3 10 C0.51280729 7.08025204 -0.58572305 4.83206182 -1 1 C-0.67 0.67 -0.34 0.34 0 0 Z " fill="#73539B" transform="translate(18,104)"/>
<path d="M0 0 C-0.66 0 -1.32 0 -2 0 C-2.0825 0.61875 -2.165 1.2375 -2.25 1.875 C-3 4 -3 4 -5.0625 5.25 C-6.0215625 5.62125 -6.0215625 5.62125 -7 6 C-7 4.35 -7 2.7 -7 1 C-3.375 -1.125 -3.375 -1.125 0 0 Z " fill="#7E50B8" transform="translate(7,87)"/>
<path d="M0 0 C1.875 0.3125 1.875 0.3125 4 1 C4.66 1.99 5.32 2.98 6 4 C5.67 4.33 5.34 4.66 5 5 C4.76807135 6.51469448 4.58784762 8.03754562 4.4375 9.5625 C4.35371094 10.38878906 4.26992187 11.21507813 4.18359375 12.06640625 C4.12300781 12.70449219 4.06242188 13.34257813 4 14 C3.67 14 3.34 14 3 14 C2.95101562 13.40832031 2.90203125 12.81664063 2.8515625 12.20703125 C2.43543133 7.80895528 1.95034405 4.03071103 0 0 Z " fill="#E0D3EA" transform="translate(129,58)"/>
<path d="M0 0 C0.99 0.99 1.98 1.98 3 3 C1.02 5.97 1.02 5.97 -1 9 C-2.1875 7.3125 -2.1875 7.3125 -3 5 C-1.625 2.25 -1.625 2.25 0 0 Z " fill="#F5EDFB" transform="translate(27,6)"/>
<path d="M0 0 C1.32 0.99 2.64 1.98 4 3 C3.34 4.32 2.68 5.64 2 7 C0.68 6.67 -0.64 6.34 -2 6 C-1.34 4.02 -0.68 2.04 0 0 Z " fill="#F0E8F7" transform="translate(146,95)"/>
<path d="M0 0 C0.66 0 1.32 0 2 0 C1.44271087 3.34373475 0.64826111 6.03312999 -1 9 C-1.66 8.67 -2.32 8.34 -3 8 C-3 5 -3 5 -1 3 C-0.67 2.01 -0.34 1.02 0 0 Z " fill="#F4E9FA" transform="translate(150,116)"/>
<path d="M0 0 C0.82810826 3.31243305 1.09278428 5.65976579 1 9 C0.01 9.495 0.01 9.495 -1 10 C-1.99 9.34 -2.98 8.68 -4 8 C-2.68 5.36 -1.36 2.72 0 0 Z " fill="#EDE4F2" transform="translate(199,163)"/>
<path d="M0 0 C2.0625 1.75 2.0625 1.75 4 4 C3.75 6.25 3.75 6.25 3 8 C0.9375 5.6875 0.9375 5.6875 -1 3 C-0.67 2.01 -0.34 1.02 0 0 Z " fill="#725799" transform="translate(194,8)"/>
<path d="M0 0 C3.465 1.98 3.465 1.98 7 4 C7 4.33 7 4.66 7 5 C4.69 5 2.38 5 0 5 C0 3.33333333 0 1.66666667 0 0 Z " fill="#F2E8FB" transform="translate(33,175)"/>
<path d="M0 0 C2.79872437 2.52788007 4.45773019 4.20411134 5 8 C4.34 8 3.68 8 3 8 C2.34 6.35 1.68 4.7 1 3 C0.34 3 -0.32 3 -1 3 C-0.67 2.01 -0.34 1.02 0 0 Z " fill="#F4E6FC" transform="translate(141,50)"/>
<path d="M0 0 C0.99 0 1.98 0 3 0 C4.15941038 3.47823115 3.70820884 5.45895578 3 9 C0.23776722 6.23776722 0.42143709 3.79293383 0 0 Z " fill="#7F52BC" transform="translate(148,48)"/>
<path d="M0 0 C1.98 0.99 1.98 0.99 4 2 C4 2.66 4 3.32 4 4 C5.32 4.33 6.64 4.66 8 5 C6.25 5.6875 6.25 5.6875 4 6 C1.75 4.75 1.75 4.75 0 3 C0 2.01 0 1.02 0 0 Z " fill="#7E649F" transform="translate(32,172)"/>
<path d="M0 0 C2 3 2 3 1.75 5.625 C1.5025 6.40875 1.255 7.1925 1 8 C0.01 8.495 0.01 8.495 -1 9 C-1.125 2.25 -1.125 2.25 0 0 Z " fill="#714E99" transform="translate(205,105)"/>
<path d="M0 0 C1.875 0.25 1.875 0.25 4 1 C5.25 3.0625 5.25 3.0625 6 5 C4.02 5 2.04 5 0 5 C0 3.33333333 0 1.66666667 0 0 Z " fill="#78609D" transform="translate(130,99)"/>
<path d="M0 0 C1.32 0.33 2.64 0.66 4 1 C4 1.66 4 2.32 4 3 C4.99 2.67 5.98 2.34 7 2 C6.34 3.32 5.68 4.64 5 6 C3.31237149 4.3545622 1.6459651 2.68711423 0 1 C0 0.67 0 0.34 0 0 Z " fill="#F5E8F9" transform="translate(208,72)"/>
<path d="M0 0 C0.99 0.33 1.98 0.66 3 1 C2.01 2.485 2.01 2.485 1 4 C-1.625 4.1875 -1.625 4.1875 -4 4 C-2.68 2.68 -1.36 1.36 0 0 Z " fill="#EFE3F9" transform="translate(218,97)"/>
<path d="M0 0 C0.33 0 0.66 0 1 0 C1 1.65 1 3.3 1 5 C-0.65 5.66 -2.3 6.32 -4 7 C-2.92598892 4.08482708 -2.22189824 2.22189824 0 0 Z " fill="#72569A" transform="translate(32,6)"/>
</svg>
